G04 #@! TF.FileFunction,Drawing*
%FSLAX46Y46*%
G04 Gerber Fmt 4.6, Leading zero omitted, Abs format (unit mm)*
G04 Created by KiCad (PCBNEW 4.0.2-4+6225~38~ubuntu15.10.1-stable) date vie 04 mar 2016 15:21:25 CET*
%MOMM*%
G01*
G04 APERTURE LIST*
%ADD10C,0.100000*%
%ADD11C,0.381000*%
G04 APERTURE END LIST*
D10*
X199365192Y-127873248D02*
X199365192Y-127873248D01*
X203789355Y-132659119D02*
X199365192Y-127873248D01*
X203756162Y-134070343D02*
X203789355Y-132659119D01*
X200968758Y-136424189D02*
X203756162Y-134070343D01*
X199367929Y-136181873D02*
X200968758Y-136424189D01*
X197847170Y-134502086D02*
X199367929Y-136181873D01*
X189939757Y-141212004D02*
X197847170Y-134502086D01*
X189052330Y-140166089D02*
X189939757Y-141212004D01*
X196925779Y-133484308D02*
X189052330Y-140166089D01*
X195277961Y-131664624D02*
X196925779Y-133484308D01*
X195272035Y-130072242D02*
X195277961Y-131664624D01*
X197662814Y-127781799D02*
X195272035Y-130072242D01*
X199365190Y-127873248D02*
X197662814Y-127781799D01*
D11*
X108120180Y-138041380D02*
X107619800Y-137640060D01*
X107619800Y-137640060D02*
X107221020Y-137139680D01*
X107221020Y-137139680D02*
X107020360Y-136639300D01*
X107020360Y-136639300D02*
X107020360Y-135940800D01*
X107020360Y-135940800D02*
X107121960Y-135341360D01*
X107121960Y-135341360D02*
X107520740Y-134739380D01*
X107520740Y-134739380D02*
X108320840Y-134139940D01*
X108320840Y-134139940D02*
X109120940Y-134040880D01*
X109120940Y-134040880D02*
X109821980Y-134040880D01*
X109821980Y-134040880D02*
X110520480Y-134541260D01*
X110520480Y-134541260D02*
X111020860Y-135239760D01*
X111020860Y-135239760D02*
X111221520Y-135839200D01*
X111221520Y-135839200D02*
X111221520Y-136540240D01*
X111221520Y-136540240D02*
X110921800Y-137340340D01*
X110921800Y-137340340D02*
X110421420Y-137840720D01*
X110421420Y-137840720D02*
X110121700Y-138041380D01*
X110121700Y-138140440D02*
X110871000Y-140390880D01*
X110871000Y-140390880D02*
X111721900Y-139941300D01*
X111721900Y-139941300D02*
X113019840Y-140939520D01*
X113019840Y-140939520D02*
X114020600Y-139839700D01*
X114020600Y-139839700D02*
X113121440Y-138539220D01*
X113121440Y-138539220D02*
X113621820Y-137241280D01*
X113621820Y-137241280D02*
X113621820Y-137040620D01*
X113621820Y-137040620D02*
X115222020Y-136740900D01*
X115222020Y-136740900D02*
X115222020Y-135239760D01*
X115222020Y-135239760D02*
X113621820Y-135041640D01*
X113621820Y-135041640D02*
X113019840Y-133639560D01*
X113019840Y-133639560D02*
X113921540Y-132240020D01*
X113921540Y-132240020D02*
X112821720Y-131239260D01*
X112821720Y-131239260D02*
X111521240Y-132140960D01*
X111521240Y-132140960D02*
X110319820Y-131640580D01*
X110319820Y-131640580D02*
X109921040Y-130040380D01*
X109921040Y-130040380D02*
X108419900Y-130040380D01*
X108419900Y-130040380D02*
X108120180Y-131640580D01*
X108120180Y-131640580D02*
X106819700Y-132140960D01*
X106819700Y-132140960D02*
X105420160Y-131140200D01*
X105420160Y-131140200D02*
X104320340Y-132240020D01*
X104320340Y-132240020D02*
X105321100Y-133540500D01*
X105321100Y-133540500D02*
X104620060Y-135041640D01*
X104620060Y-135041640D02*
X103019860Y-135239760D01*
X103019860Y-135239760D02*
X102920800Y-136639300D01*
X102920800Y-136639300D02*
X104521000Y-136941560D01*
X104521000Y-136941560D02*
X105120440Y-138539220D01*
X105120440Y-138539220D02*
X104221280Y-139839700D01*
X104221280Y-139839700D02*
X105222040Y-140939520D01*
X105222040Y-140939520D02*
X106519980Y-140040360D01*
X106519980Y-140040360D02*
X107221020Y-140340080D01*
X107221020Y-140340080D02*
X108120180Y-138041380D01*
M02*
