M48
;DRILL file {KiCad 4.0.2-4+6225~38~ubuntu15.10.1-stable} date vie 04 mar 2016 15:33:31 CET
;FORMAT={-:-/ absolute / metric / decimal}
FMAT,2
METRIC,TZ
T1C0.800
T2C3.000
%
G90
G05
M71
T1
X93.98Y-63.5
X93.98Y-69.596
X93.98Y-76.2
X93.98Y-79.248
X94.435Y-115.316
X95.25Y-91.44
X95.25Y-93.98
X96.48Y-69.596
X96.52Y-63.5
X96.52Y-76.2
X97.434Y-120.015
X97.79Y-91.44
X97.79Y-93.98
X99.06Y-59.69
X99.06Y-63.5
X99.06Y-76.2
X100.33Y-91.44
X100.33Y-93.98
X100.434Y-115.316
X101.6Y-59.69
X101.6Y-63.5
X101.6Y-76.2
X101.6Y-79.248
X104.14Y-59.69
X104.14Y-63.5
X104.14Y-76.2
X105.41Y-91.44
X105.41Y-93.98
X106.68Y-59.69
X106.68Y-63.5
X106.68Y-76.2
X107.95Y-91.44
X107.95Y-93.98
X109.22Y-63.5
X109.22Y-76.2
X110.49Y-91.44
X110.49Y-93.98
X111.76Y-63.5
X111.76Y-76.2
X114.3Y-63.5
X114.3Y-69.596
X114.3Y-76.2
X114.3Y-79.248
X114.3Y-107.696
X114.3Y-113.792
X114.3Y-120.396
X114.3Y-123.444
X116.8Y-69.596
X116.8Y-113.792
X116.84Y-63.5
X116.84Y-76.2
X116.84Y-107.696
X116.84Y-120.396
X119.38Y-59.69
X119.38Y-63.5
X119.38Y-76.2
X119.38Y-103.886
X119.38Y-107.696
X119.38Y-120.396
X121.92Y-59.69
X121.92Y-63.5
X121.92Y-76.2
X121.92Y-79.248
X121.92Y-103.886
X121.92Y-107.696
X121.92Y-120.396
X121.92Y-123.444
X124.46Y-59.69
X124.46Y-63.5
X124.46Y-76.2
X124.46Y-103.886
X124.46Y-107.696
X124.46Y-120.396
X127.Y-59.69
X127.Y-63.5
X127.Y-76.2
X127.Y-103.886
X127.Y-107.696
X127.Y-120.396
X129.54Y-63.5
X129.54Y-76.2
X129.54Y-107.696
X129.54Y-120.396
X132.08Y-63.5
X132.08Y-76.2
X132.08Y-107.696
X132.08Y-120.396
X134.62Y-63.5
X134.62Y-69.596
X134.62Y-76.2
X134.62Y-79.248
X134.62Y-107.696
X134.62Y-113.792
X134.62Y-120.396
X134.62Y-123.444
X137.12Y-69.596
X137.12Y-113.792
X137.16Y-63.5
X137.16Y-76.2
X137.16Y-107.696
X137.16Y-120.396
X139.7Y-59.69
X139.7Y-63.5
X139.7Y-76.2
X139.7Y-103.886
X139.7Y-107.696
X139.7Y-120.396
X142.24Y-59.69
X142.24Y-63.5
X142.24Y-76.2
X142.24Y-79.248
X142.24Y-103.886
X142.24Y-107.696
X142.24Y-120.396
X142.24Y-123.444
X144.78Y-59.69
X144.78Y-63.5
X144.78Y-76.2
X144.78Y-103.886
X144.78Y-107.696
X144.78Y-120.396
X147.32Y-59.69
X147.32Y-63.5
X147.32Y-76.2
X147.32Y-103.886
X147.32Y-107.696
X147.32Y-120.396
X149.86Y-63.5
X149.86Y-76.2
X149.86Y-107.696
X149.86Y-120.396
X152.4Y-63.5
X152.4Y-76.2
X152.4Y-107.696
X152.4Y-120.396
X154.94Y-63.5
X154.94Y-69.596
X154.94Y-76.2
X154.94Y-79.248
X154.94Y-107.696
X154.94Y-113.792
X154.94Y-120.396
X154.94Y-123.444
X157.44Y-69.596
X157.44Y-113.792
X157.48Y-63.5
X157.48Y-76.2
X157.48Y-107.696
X157.48Y-120.396
X160.02Y-59.69
X160.02Y-63.5
X160.02Y-76.2
X160.02Y-103.886
X160.02Y-107.696
X160.02Y-120.396
X162.56Y-59.69
X162.56Y-63.5
X162.56Y-76.2
X162.56Y-79.248
X162.56Y-103.886
X162.56Y-107.696
X162.56Y-120.396
X162.56Y-123.444
X165.1Y-59.69
X165.1Y-63.5
X165.1Y-76.2
X165.1Y-103.886
X165.1Y-107.696
X165.1Y-120.396
X167.64Y-59.69
X167.64Y-63.5
X167.64Y-76.2
X167.64Y-103.886
X167.64Y-107.696
X167.64Y-120.396
X170.18Y-63.5
X170.18Y-76.2
X170.18Y-107.696
X170.18Y-120.396
X172.72Y-63.5
X172.72Y-76.2
X172.72Y-107.696
X172.72Y-120.396
X185.42Y-68.58
X185.42Y-71.12
X185.42Y-73.66
X185.42Y-76.2
X185.42Y-78.74
X185.42Y-81.28
X185.42Y-83.82
X185.42Y-86.36
X185.42Y-88.9
X185.42Y-91.44
X185.42Y-93.98
X185.42Y-96.52
X185.42Y-99.06
X185.42Y-101.6
X185.42Y-104.14
X185.42Y-106.68
X185.42Y-109.22
X185.42Y-111.76
X187.96Y-68.58
X187.96Y-71.12
X187.96Y-73.66
X187.96Y-76.2
X187.96Y-78.74
X187.96Y-81.28
X187.96Y-83.82
X187.96Y-86.36
X187.96Y-88.9
X187.96Y-91.44
X187.96Y-93.98
X187.96Y-96.52
X187.96Y-99.06
X187.96Y-101.6
X187.96Y-104.14
X187.96Y-106.68
X187.96Y-109.22
X187.96Y-111.76
X196.85Y-68.072
X196.85Y-71.628
X196.85Y-75.184
X196.85Y-78.74
X196.85Y-82.296
X196.85Y-85.852
X196.85Y-89.408
X199.39Y-68.072
X199.39Y-71.628
X199.39Y-75.184
X199.39Y-78.74
X199.39Y-82.296
X199.39Y-85.852
X199.39Y-89.408
X201.93Y-68.072
X201.93Y-71.628
X201.93Y-75.184
X201.93Y-78.74
X201.93Y-82.296
X201.93Y-85.852
X201.93Y-89.408
T2
X91.44Y-58.42
X91.44Y-139.7
X200.66Y-58.42
X200.66Y-139.7
T0
M30
