M48
;DRILL file {KiCad 4.0.4+e1-6308~48~ubuntu15.10.1-stable} date Thu Dec  8 13:49:05 2016
;FORMAT={-:-/ absolute / inch / decimal}
FMAT,2
INCH,TZ
T1C0.012
T2C0.040
T3C0.052
T4C0.087
%
G90
G05
M72
T1
X6.41Y-4.06
X7.02Y-3.96
X7.21Y-3.862
T2
X3.7Y-3.88
X3.85Y-4.17
X3.9292Y-4.99
X3.96Y-3.15
X3.96Y-3.65
X3.96Y-4.23
X3.96Y-4.73
X4.06Y-3.15
X4.06Y-3.65
X4.06Y-4.23
X4.06Y-4.73
X4.16Y-2.99
X4.16Y-3.15
X4.16Y-3.65
X4.16Y-4.07
X4.16Y-4.23
X4.16Y-4.73
X4.26Y-2.99
X4.26Y-3.15
X4.26Y-3.65
X4.26Y-4.07
X4.26Y-4.23
X4.26Y-4.73
X4.3308Y-4.99
X4.36Y-2.99
X4.36Y-3.15
X4.36Y-3.65
X4.36Y-4.07
X4.36Y-4.23
X4.36Y-4.73
X4.41Y-3.4
X4.41Y-3.5
X4.41Y-4.48
X4.41Y-4.58
X4.46Y-2.99
X4.46Y-3.15
X4.46Y-3.65
X4.46Y-4.07
X4.46Y-4.23
X4.46Y-4.73
X4.51Y-3.4
X4.51Y-3.5
X4.51Y-4.48
X4.51Y-4.58
X4.56Y-3.15
X4.56Y-3.65
X4.56Y-4.23
X4.56Y-4.73
X4.5601Y-5.01
X4.5601Y-5.41
X4.61Y-3.4
X4.61Y-3.5
X4.61Y-4.48
X4.61Y-4.58
X4.66Y-3.15
X4.66Y-3.65
X4.66Y-4.23
X4.66Y-4.73
X4.76Y-3.15
X4.76Y-3.65
X4.76Y-4.23
X4.76Y-4.73
X4.86Y-3.15
X4.86Y-3.65
X4.86Y-4.23
X4.86Y-4.73
X4.96Y-2.99
X4.96Y-3.15
X4.96Y-3.65
X4.96Y-4.07
X4.96Y-4.23
X4.96Y-4.73
X5.06Y-2.99
X5.06Y-3.15
X5.06Y-3.65
X5.06Y-4.07
X5.06Y-4.23
X5.06Y-4.73
X5.12Y-5.265
X5.12Y-5.365
X5.16Y-2.99
X5.16Y-3.15
X5.16Y-3.65
X5.16Y-4.07
X5.16Y-4.23
X5.16Y-4.73
X5.21Y-3.4
X5.21Y-3.5
X5.21Y-4.48
X5.21Y-4.58
X5.22Y-5.265
X5.22Y-5.365
X5.26Y-2.99
X5.26Y-3.15
X5.26Y-3.65
X5.26Y-4.07
X5.26Y-4.23
X5.26Y-4.73
X5.31Y-3.4
X5.31Y-3.5
X5.31Y-4.48
X5.31Y-4.58
X5.32Y-5.265
X5.32Y-5.365
X5.36Y-3.15
X5.36Y-3.65
X5.36Y-4.23
X5.36Y-4.73
X5.41Y-3.4
X5.41Y-3.5
X5.41Y-4.48
X5.41Y-4.58
X5.42Y-5.265
X5.42Y-5.365
X5.46Y-3.15
X5.46Y-3.65
X5.46Y-4.23
X5.46Y-4.73
X5.52Y-5.265
X5.52Y-5.365
X5.56Y-4.23
X5.56Y-4.73
X5.5625Y-3.15
X5.5625Y-3.65
X5.62Y-5.265
X5.62Y-5.365
X5.66Y-4.23
X5.66Y-4.73
X5.6625Y-3.15
X5.6625Y-3.65
X5.72Y-5.265
X5.72Y-5.365
X5.76Y-4.07
X5.76Y-4.23
X5.76Y-4.73
X5.7625Y-2.99
X5.7625Y-3.15
X5.7625Y-3.65
X5.82Y-5.005
X5.82Y-5.105
X5.82Y-5.265
X5.82Y-5.365
X5.86Y-4.07
X5.86Y-4.23
X5.86Y-4.73
X5.8625Y-2.99
X5.8625Y-3.15
X5.8625Y-3.65
X5.92Y-5.005
X5.92Y-5.105
X5.92Y-5.265
X5.92Y-5.365
X5.96Y-4.07
X5.96Y-4.23
X5.96Y-4.73
X5.9625Y-2.99
X5.9625Y-3.15
X5.9625Y-3.65
X6.01Y-4.48
X6.01Y-4.58
X6.0125Y-3.4
X6.0125Y-3.5
X6.02Y-5.005
X6.02Y-5.105
X6.02Y-5.265
X6.02Y-5.365
X6.06Y-4.07
X6.06Y-4.23
X6.06Y-4.73
X6.0625Y-2.99
X6.0625Y-3.15
X6.0625Y-3.65
X6.11Y-4.48
X6.11Y-4.58
X6.1125Y-3.4
X6.1125Y-3.5
X6.16Y-4.23
X6.16Y-4.73
X6.1625Y-3.15
X6.1625Y-3.65
X6.21Y-4.48
X6.21Y-4.58
X6.2125Y-3.4
X6.2125Y-3.5
X6.23Y-5.065
X6.23Y-5.165
X6.23Y-5.265
X6.26Y-4.23
X6.26Y-4.73
X6.2625Y-3.15
X6.2625Y-3.65
X6.36Y-3.15
X6.36Y-3.65
X6.36Y-4.23
X6.36Y-4.73
X6.395Y-5.065
X6.395Y-5.165
X6.395Y-5.265
X6.46Y-3.15
X6.46Y-3.65
X6.46Y-4.23
X6.46Y-4.73
X6.535Y-5.065
X6.535Y-5.165
X6.535Y-5.265
X6.56Y-2.99
X6.56Y-3.15
X6.56Y-3.65
X6.56Y-4.07
X6.56Y-4.23
X6.56Y-4.73
X6.66Y-2.99
X6.66Y-3.15
X6.66Y-3.65
X6.66Y-4.07
X6.66Y-4.23
X6.66Y-4.73
X6.675Y-5.065
X6.675Y-5.165
X6.675Y-5.265
X6.76Y-2.99
X6.76Y-3.15
X6.76Y-3.65
X6.76Y-4.07
X6.76Y-4.23
X6.76Y-4.73
X6.81Y-3.4
X6.81Y-3.5
X6.81Y-4.48
X6.81Y-4.58
X6.815Y-5.065
X6.815Y-5.165
X6.815Y-5.265
X6.86Y-2.99
X6.86Y-3.15
X6.86Y-3.65
X6.86Y-4.07
X6.86Y-4.23
X6.86Y-4.73
X6.91Y-3.4
X6.91Y-3.5
X6.91Y-4.48
X6.91Y-4.58
X6.955Y-5.065
X6.955Y-5.165
X6.955Y-5.265
X6.96Y-3.15
X6.96Y-3.65
X6.96Y-4.23
X6.96Y-4.73
X7.01Y-3.4
X7.01Y-3.5
X7.01Y-4.48
X7.01Y-4.58
X7.06Y-3.15
X7.06Y-3.65
X7.06Y-4.23
X7.06Y-4.73
X7.095Y-5.065
X7.095Y-5.165
X7.095Y-5.265
X7.235Y-5.065
X7.235Y-5.165
X7.235Y-5.265
X7.2831Y-3.06
X7.2831Y-3.16
X7.2831Y-3.26
X7.2831Y-3.36
X7.2831Y-3.46
X7.2831Y-3.56
X7.2831Y-3.66
X7.2831Y-3.76
X7.2831Y-3.86
X7.2831Y-3.96
X7.2831Y-4.06
X7.2831Y-4.16
X7.2831Y-4.26
X7.2831Y-4.36
X7.2831Y-4.46
X7.2831Y-4.56
X7.2831Y-4.66
X7.2831Y-4.76
X7.375Y-5.065
X7.375Y-5.165
X7.375Y-5.265
X7.3831Y-3.06
X7.3831Y-3.16
X7.3831Y-3.26
X7.3831Y-3.36
X7.3831Y-3.46
X7.3831Y-3.56
X7.3831Y-3.66
X7.3831Y-3.76
X7.3831Y-3.86
X7.3831Y-3.96
X7.3831Y-4.06
X7.3831Y-4.16
X7.3831Y-4.26
X7.3831Y-4.36
X7.3831Y-4.46
X7.3831Y-4.56
X7.3831Y-4.66
X7.3831Y-4.76
T3
X3.725Y-5.27
X3.925Y-5.27
X4.165Y-5.27
X4.365Y-5.27
T4
X4.055Y-3.855
X7.38Y-2.93
X7.38Y-5.405
T0
M30
