G04 #@! TF.FileFunction,Copper,L1,Top,Signal*
%FSLAX46Y46*%
G04 Gerber Fmt 4.6, Leading zero omitted, Abs format (unit mm)*
G04 Created by KiCad (PCBNEW 4.0.4+e1-6308~48~ubuntu15.10.1-stable) date Thu Dec  8 14:35:49 2016*
%MOMM*%
%LPD*%
G01*
G04 APERTURE LIST*
%ADD10C,0.100000*%
%ADD11C,1.727200*%
%ADD12R,1.727200X1.727200*%
%ADD13O,1.981200X3.962400*%
%ADD14O,1.727200X1.727200*%
%ADD15R,1.727200X2.032000*%
%ADD16O,1.727200X2.032000*%
%ADD17R,2.032000X1.727200*%
%ADD18O,2.032000X1.727200*%
%ADD19R,1.700000X2.000000*%
%ADD20R,2.000000X1.700000*%
%ADD21R,1.800860X1.597660*%
%ADD22R,3.500000X1.600000*%
%ADD23C,2.032000*%
%ADD24C,0.609600*%
%ADD25C,3.048000*%
%ADD26C,0.762000*%
%ADD27C,0.508000*%
%ADD28C,0.254000*%
%ADD29C,1.270000*%
%ADD30C,2.540000*%
%ADD31C,0.152400*%
G04 APERTURE END LIST*
D10*
D11*
X110002000Y-126746000D03*
X99802000Y-126746000D03*
X115826540Y-137414520D03*
D12*
X115826540Y-127254520D03*
D13*
X99695000Y-133858000D03*
X94615000Y-133858000D03*
D12*
X184992000Y-77724000D03*
D14*
X187532000Y-77724000D03*
X184992000Y-80264000D03*
X187532000Y-80264000D03*
X184992000Y-82804000D03*
X187532000Y-82804000D03*
X184992000Y-85344000D03*
X187532000Y-85344000D03*
X184992000Y-87884000D03*
X187532000Y-87884000D03*
X184992000Y-90424000D03*
X187532000Y-90424000D03*
X184992000Y-92964000D03*
X187532000Y-92964000D03*
X184992000Y-95504000D03*
X187532000Y-95504000D03*
X184992000Y-98044000D03*
X187532000Y-98044000D03*
X184992000Y-100584000D03*
X187532000Y-100584000D03*
X184992000Y-103124000D03*
X187532000Y-103124000D03*
X184992000Y-105664000D03*
X187532000Y-105664000D03*
X184992000Y-108204000D03*
X187532000Y-108204000D03*
X184992000Y-110744000D03*
X187532000Y-110744000D03*
X184992000Y-113284000D03*
X187532000Y-113284000D03*
X184992000Y-115824000D03*
X187532000Y-115824000D03*
X184992000Y-118364000D03*
X187532000Y-118364000D03*
X184992000Y-120904000D03*
X187532000Y-120904000D03*
D12*
X152654000Y-116332000D03*
D14*
X152654000Y-113792000D03*
X155194000Y-116332000D03*
X155194000Y-113792000D03*
X157734000Y-116332000D03*
X157734000Y-113792000D03*
D12*
X112014000Y-116332000D03*
D14*
X112014000Y-113792000D03*
X114554000Y-116332000D03*
X114554000Y-113792000D03*
X117094000Y-116332000D03*
X117094000Y-113792000D03*
D12*
X132334000Y-116332000D03*
D14*
X132334000Y-113792000D03*
X134874000Y-116332000D03*
X134874000Y-113792000D03*
X137414000Y-116332000D03*
X137414000Y-113792000D03*
D12*
X172974000Y-116332000D03*
D14*
X172974000Y-113792000D03*
X175514000Y-116332000D03*
X175514000Y-113792000D03*
X178054000Y-116332000D03*
X178054000Y-113792000D03*
D12*
X172974000Y-88900000D03*
D14*
X172974000Y-86360000D03*
X175514000Y-88900000D03*
X175514000Y-86360000D03*
X178054000Y-88900000D03*
X178054000Y-86360000D03*
D12*
X152717500Y-88900000D03*
D14*
X152717500Y-86360000D03*
X155257500Y-88900000D03*
X155257500Y-86360000D03*
X157797500Y-88900000D03*
X157797500Y-86360000D03*
D12*
X132334000Y-88900000D03*
D14*
X132334000Y-86360000D03*
X134874000Y-88900000D03*
X134874000Y-86360000D03*
X137414000Y-88900000D03*
X137414000Y-86360000D03*
D12*
X112014000Y-88900000D03*
D14*
X112014000Y-86360000D03*
X114554000Y-88900000D03*
X114554000Y-86360000D03*
X117094000Y-88900000D03*
X117094000Y-86360000D03*
D12*
X130048000Y-136271000D03*
D14*
X130048000Y-133731000D03*
X132588000Y-136271000D03*
X132588000Y-133731000D03*
X135128000Y-136271000D03*
X135128000Y-133731000D03*
X137668000Y-136271000D03*
X137668000Y-133731000D03*
X140208000Y-136271000D03*
X140208000Y-133731000D03*
X142748000Y-136271000D03*
X142748000Y-133731000D03*
X145288000Y-136271000D03*
X145288000Y-133731000D03*
X147828000Y-136271000D03*
X147828000Y-133731000D03*
X150368000Y-136271000D03*
X150368000Y-133731000D03*
X152908000Y-136271000D03*
X152908000Y-133731000D03*
D12*
X147828000Y-129667000D03*
D14*
X147828000Y-127127000D03*
X150368000Y-129667000D03*
X150368000Y-127127000D03*
X152908000Y-129667000D03*
X152908000Y-127127000D03*
D15*
X105664000Y-75946000D03*
D16*
X108204000Y-75946000D03*
X110744000Y-75946000D03*
X113284000Y-75946000D03*
D15*
X125984000Y-75946000D03*
D16*
X128524000Y-75946000D03*
X131064000Y-75946000D03*
X133604000Y-75946000D03*
D15*
X146367500Y-75946000D03*
D16*
X148907500Y-75946000D03*
X151447500Y-75946000D03*
X153987500Y-75946000D03*
D15*
X166624000Y-75946000D03*
D16*
X169164000Y-75946000D03*
X171704000Y-75946000D03*
X174244000Y-75946000D03*
D15*
X105664000Y-103378000D03*
D16*
X108204000Y-103378000D03*
X110744000Y-103378000D03*
X113284000Y-103378000D03*
D15*
X125984000Y-103378000D03*
D16*
X128524000Y-103378000D03*
X131064000Y-103378000D03*
X133604000Y-103378000D03*
D15*
X146304000Y-103378000D03*
D16*
X148844000Y-103378000D03*
X151384000Y-103378000D03*
X153924000Y-103378000D03*
D15*
X166624000Y-103378000D03*
D16*
X169164000Y-103378000D03*
X171704000Y-103378000D03*
X174244000Y-103378000D03*
D17*
X162433000Y-133731000D03*
D18*
X162433000Y-131191000D03*
X162433000Y-128651000D03*
D17*
X165989000Y-133731000D03*
D18*
X165989000Y-131191000D03*
X165989000Y-128651000D03*
D17*
X169545000Y-133731000D03*
D18*
X169545000Y-131191000D03*
X169545000Y-128651000D03*
D17*
X173101000Y-133731000D03*
D18*
X173101000Y-131191000D03*
X173101000Y-128651000D03*
D17*
X176657000Y-133731000D03*
D18*
X176657000Y-131191000D03*
X176657000Y-128651000D03*
D17*
X180213000Y-133731000D03*
D18*
X180213000Y-131191000D03*
X180213000Y-128651000D03*
D17*
X183769000Y-133731000D03*
D18*
X183769000Y-131191000D03*
X183769000Y-128651000D03*
D17*
X187325000Y-133731000D03*
D18*
X187325000Y-131191000D03*
X187325000Y-128651000D03*
D17*
X158242000Y-133731000D03*
D18*
X158242000Y-131191000D03*
X158242000Y-128651000D03*
D19*
X142621000Y-125254000D03*
X142621000Y-129254000D03*
X132207000Y-125254000D03*
X132207000Y-129254000D03*
X137414000Y-125254000D03*
X137414000Y-129254000D03*
D20*
X162084000Y-117602000D03*
X166084000Y-117602000D03*
X141764000Y-117602000D03*
X145764000Y-117602000D03*
X121444000Y-117602000D03*
X125444000Y-117602000D03*
X101124000Y-117602000D03*
X105124000Y-117602000D03*
X162084000Y-90170000D03*
X166084000Y-90170000D03*
X141827500Y-90170000D03*
X145827500Y-90170000D03*
X121444000Y-90170000D03*
X125444000Y-90170000D03*
X101124000Y-90170000D03*
X105124000Y-90170000D03*
D21*
X140081000Y-125834140D03*
X140081000Y-128673860D03*
X129667000Y-125834140D03*
X129667000Y-128673860D03*
X134874000Y-125834140D03*
X134874000Y-128673860D03*
D22*
X162400000Y-112522000D03*
X167800000Y-112522000D03*
X142080000Y-112522000D03*
X147480000Y-112522000D03*
X121760000Y-112522000D03*
X127160000Y-112522000D03*
X101440000Y-112522000D03*
X106840000Y-112522000D03*
X162400000Y-85090000D03*
X167800000Y-85090000D03*
X142143500Y-85090000D03*
X147543500Y-85090000D03*
X121760000Y-85090000D03*
X127160000Y-85090000D03*
X101440000Y-85090000D03*
X106840000Y-85090000D03*
D20*
X115030000Y-82804000D03*
X111030000Y-82804000D03*
X135350000Y-82804000D03*
X131350000Y-82804000D03*
X155733500Y-82804000D03*
X151733500Y-82804000D03*
X175990000Y-82804000D03*
X171990000Y-82804000D03*
X115030000Y-110236000D03*
X111030000Y-110236000D03*
X135350000Y-110236000D03*
X131350000Y-110236000D03*
X155670000Y-110236000D03*
X151670000Y-110236000D03*
X175990000Y-110236000D03*
X171990000Y-110236000D03*
D13*
X110871000Y-133858000D03*
X105791000Y-133858000D03*
D12*
X179324000Y-107442000D03*
D11*
X176784000Y-107442000D03*
X174244000Y-107442000D03*
X171704000Y-107442000D03*
X169164000Y-107442000D03*
X166624000Y-107442000D03*
D12*
X164084000Y-107442000D03*
D11*
X161544000Y-107442000D03*
X161544000Y-120142000D03*
X164084000Y-120142000D03*
X166624000Y-120142000D03*
X169164000Y-120142000D03*
X171704000Y-120142000D03*
X174244000Y-120142000D03*
X176784000Y-120142000D03*
X179324000Y-120142000D03*
D12*
X159004000Y-107442000D03*
D11*
X156464000Y-107442000D03*
X153924000Y-107442000D03*
X151384000Y-107442000D03*
X148844000Y-107442000D03*
X146304000Y-107442000D03*
D12*
X143764000Y-107442000D03*
D11*
X141224000Y-107442000D03*
X141224000Y-120142000D03*
X143764000Y-120142000D03*
X146304000Y-120142000D03*
X148844000Y-120142000D03*
X151384000Y-120142000D03*
X153924000Y-120142000D03*
X156464000Y-120142000D03*
X159004000Y-120142000D03*
D12*
X138684000Y-107442000D03*
D11*
X136144000Y-107442000D03*
X133604000Y-107442000D03*
X131064000Y-107442000D03*
X128524000Y-107442000D03*
X125984000Y-107442000D03*
D12*
X123444000Y-107442000D03*
D11*
X120904000Y-107442000D03*
X120904000Y-120142000D03*
X123444000Y-120142000D03*
X125984000Y-120142000D03*
X128524000Y-120142000D03*
X131064000Y-120142000D03*
X133604000Y-120142000D03*
X136144000Y-120142000D03*
X138684000Y-120142000D03*
D12*
X118364000Y-107442000D03*
D11*
X115824000Y-107442000D03*
X113284000Y-107442000D03*
X110744000Y-107442000D03*
X108204000Y-107442000D03*
X105664000Y-107442000D03*
D12*
X103124000Y-107442000D03*
D11*
X100584000Y-107442000D03*
X100584000Y-120142000D03*
X103124000Y-120142000D03*
X105664000Y-120142000D03*
X108204000Y-120142000D03*
X110744000Y-120142000D03*
X113284000Y-120142000D03*
X115824000Y-120142000D03*
X118364000Y-120142000D03*
D12*
X179324000Y-80010000D03*
D11*
X176784000Y-80010000D03*
X174244000Y-80010000D03*
X171704000Y-80010000D03*
X169164000Y-80010000D03*
X166624000Y-80010000D03*
D12*
X164084000Y-80010000D03*
D11*
X161544000Y-80010000D03*
X161544000Y-92710000D03*
X164084000Y-92710000D03*
X166624000Y-92710000D03*
X169164000Y-92710000D03*
X171704000Y-92710000D03*
X174244000Y-92710000D03*
X176784000Y-92710000D03*
X179324000Y-92710000D03*
D12*
X159067500Y-80010000D03*
D11*
X156527500Y-80010000D03*
X153987500Y-80010000D03*
X151447500Y-80010000D03*
X148907500Y-80010000D03*
X146367500Y-80010000D03*
D12*
X143827500Y-80010000D03*
D11*
X141287500Y-80010000D03*
X141287500Y-92710000D03*
X143827500Y-92710000D03*
X146367500Y-92710000D03*
X148907500Y-92710000D03*
X151447500Y-92710000D03*
X153987500Y-92710000D03*
X156527500Y-92710000D03*
X159067500Y-92710000D03*
D12*
X138684000Y-80010000D03*
D11*
X136144000Y-80010000D03*
X133604000Y-80010000D03*
X131064000Y-80010000D03*
X128524000Y-80010000D03*
X125984000Y-80010000D03*
D12*
X123444000Y-80010000D03*
D11*
X120904000Y-80010000D03*
X120904000Y-92710000D03*
X123444000Y-92710000D03*
X125984000Y-92710000D03*
X128524000Y-92710000D03*
X131064000Y-92710000D03*
X133604000Y-92710000D03*
X136144000Y-92710000D03*
X138684000Y-92710000D03*
D12*
X118364000Y-80010000D03*
D11*
X115824000Y-80010000D03*
X113284000Y-80010000D03*
X110744000Y-80010000D03*
X108204000Y-80010000D03*
X105664000Y-80010000D03*
D12*
X103124000Y-80010000D03*
D11*
X100584000Y-80010000D03*
X100584000Y-92710000D03*
X103124000Y-92710000D03*
X105664000Y-92710000D03*
X108204000Y-92710000D03*
X110744000Y-92710000D03*
X113284000Y-92710000D03*
X115824000Y-92710000D03*
X118364000Y-92710000D03*
D23*
X93980000Y-98552000D03*
X97790000Y-105918000D03*
D24*
X178308000Y-100584000D03*
X162814000Y-103124000D03*
X183134000Y-98094800D03*
D25*
X103124000Y-107442000D02*
X103124000Y-105410000D01*
X93853000Y-104394000D02*
X93853000Y-133096000D01*
X96139000Y-102108000D02*
X93853000Y-104394000D01*
X99822000Y-102108000D02*
X96139000Y-102108000D01*
X103124000Y-105410000D02*
X99822000Y-102108000D01*
X103124000Y-78422500D02*
X103124000Y-78359000D01*
X103124000Y-78359000D02*
X101092000Y-76327000D01*
X101092000Y-76327000D02*
X96393000Y-76327000D01*
X96393000Y-76327000D02*
X93853000Y-78867000D01*
X93853000Y-78867000D02*
X93980000Y-98552000D01*
X93853000Y-133096000D02*
X94615000Y-133858000D01*
X115826540Y-137414520D02*
X115823480Y-137414520D01*
X115823480Y-137414520D02*
X115316000Y-137922000D01*
X115316000Y-137922000D02*
X96393000Y-137922000D01*
X96393000Y-137922000D02*
X94615000Y-136144000D01*
X94615000Y-136144000D02*
X94615000Y-133858000D01*
D26*
X159004000Y-107442000D02*
X159004000Y-107061000D01*
X159004000Y-107061000D02*
X157607000Y-105664000D01*
X140081000Y-128673860D02*
X140081000Y-129921000D01*
X140081000Y-129921000D02*
X141605000Y-131445000D01*
X141605000Y-131445000D02*
X146050000Y-131445000D01*
X146050000Y-131445000D02*
X147828000Y-129667000D01*
X164084000Y-80010000D02*
X164084000Y-81374000D01*
X164084000Y-81374000D02*
X167800000Y-85090000D01*
D27*
X187532000Y-120904000D02*
X188468000Y-120904000D01*
X188468000Y-120904000D02*
X189534800Y-121970800D01*
X189534800Y-121970800D02*
X189534800Y-131521200D01*
X189534800Y-131521200D02*
X187325000Y-133731000D01*
D28*
X134874000Y-128673860D02*
X134874000Y-128270000D01*
X134874000Y-128270000D02*
X135890000Y-127254000D01*
X140081000Y-128673860D02*
X140081000Y-128651000D01*
X131086860Y-127254000D02*
X129667000Y-128673860D01*
D27*
X147828000Y-129667000D02*
X150368000Y-129667000D01*
X150368000Y-129667000D02*
X152908000Y-129667000D01*
X152908000Y-129667000D02*
X156972000Y-133731000D01*
X156972000Y-133731000D02*
X158242000Y-133731000D01*
D29*
X103124000Y-107442000D02*
X103124000Y-108806000D01*
X103124000Y-108806000D02*
X106840000Y-112522000D01*
D26*
X118364000Y-107442000D02*
X118364000Y-107188000D01*
X118364000Y-107188000D02*
X116840000Y-105664000D01*
X123444000Y-107442000D02*
X123444000Y-107188000D01*
X123444000Y-107188000D02*
X121920000Y-105664000D01*
X138684000Y-107442000D02*
X138684000Y-106680000D01*
X138684000Y-106680000D02*
X137668000Y-105664000D01*
X143764000Y-107442000D02*
X143764000Y-106680000D01*
X143764000Y-106680000D02*
X142748000Y-105664000D01*
X162433000Y-105791000D02*
X177673000Y-105791000D01*
X177673000Y-105791000D02*
X179324000Y-107442000D01*
X164084000Y-107442000D02*
X162433000Y-105791000D01*
X162433000Y-105791000D02*
X162306000Y-105664000D01*
D29*
X103124000Y-107442000D02*
X103124000Y-105664000D01*
X103124000Y-105664000D02*
X116840000Y-105664000D01*
X116840000Y-105664000D02*
X121920000Y-105664000D01*
X121920000Y-105664000D02*
X137668000Y-105664000D01*
X137668000Y-105664000D02*
X142748000Y-105664000D01*
X142748000Y-105664000D02*
X157607000Y-105664000D01*
X157607000Y-105664000D02*
X162306000Y-105664000D01*
X162306000Y-105664000D02*
X161798000Y-105664000D01*
D26*
X164084000Y-107442000D02*
X164084000Y-108806000D01*
X164084000Y-108806000D02*
X167800000Y-112522000D01*
X143764000Y-107442000D02*
X143764000Y-108806000D01*
X143764000Y-108806000D02*
X147480000Y-112522000D01*
X123444000Y-107442000D02*
X123444000Y-108806000D01*
X123444000Y-108806000D02*
X127160000Y-112522000D01*
X103124000Y-80010000D02*
X103124000Y-81374000D01*
X103124000Y-81374000D02*
X106840000Y-85090000D01*
X123444000Y-80010000D02*
X123444000Y-81374000D01*
X123444000Y-81374000D02*
X127160000Y-85090000D01*
X143827500Y-80010000D02*
X143827500Y-81374000D01*
X143827500Y-81374000D02*
X147543500Y-85090000D01*
D28*
X111030000Y-110236000D02*
X109126000Y-110236000D01*
X109126000Y-110236000D02*
X106840000Y-112522000D01*
X131350000Y-110236000D02*
X129446000Y-110236000D01*
X129446000Y-110236000D02*
X127160000Y-112522000D01*
X151670000Y-110236000D02*
X149766000Y-110236000D01*
X149766000Y-110236000D02*
X147480000Y-112522000D01*
X171990000Y-110236000D02*
X170086000Y-110236000D01*
X170086000Y-110236000D02*
X167800000Y-112522000D01*
X171990000Y-82804000D02*
X170086000Y-82804000D01*
X170086000Y-82804000D02*
X167800000Y-85090000D01*
X151733500Y-82804000D02*
X149829500Y-82804000D01*
X149829500Y-82804000D02*
X147543500Y-85090000D01*
X131350000Y-82804000D02*
X129446000Y-82804000D01*
X129446000Y-82804000D02*
X127160000Y-85090000D01*
D26*
X162306000Y-77978000D02*
X177292000Y-77978000D01*
X177292000Y-77978000D02*
X179324000Y-80010000D01*
X164084000Y-80010000D02*
X164084000Y-79756000D01*
X164084000Y-79756000D02*
X162306000Y-77978000D01*
X159067500Y-80010000D02*
X159004000Y-80010000D01*
X159004000Y-80010000D02*
X156972000Y-77978000D01*
X143827500Y-80010000D02*
X143510000Y-80010000D01*
X143510000Y-80010000D02*
X141478000Y-77978000D01*
X138684000Y-80010000D02*
X138684000Y-79756000D01*
X138684000Y-79756000D02*
X136906000Y-77978000D01*
X123444000Y-80010000D02*
X123444000Y-79502000D01*
X123444000Y-79502000D02*
X121920000Y-77978000D01*
X118364000Y-80010000D02*
X118364000Y-79502000D01*
X118364000Y-79502000D02*
X116840000Y-77978000D01*
D29*
X103124000Y-80010000D02*
X103124000Y-78422500D01*
X103124000Y-78422500D02*
X103124000Y-78740000D01*
X103886000Y-77978000D02*
X116840000Y-77978000D01*
X116840000Y-77978000D02*
X121920000Y-77978000D01*
X121920000Y-77978000D02*
X136906000Y-77978000D01*
X136906000Y-77978000D02*
X141478000Y-77978000D01*
X141478000Y-77978000D02*
X156972000Y-77978000D01*
X156972000Y-77978000D02*
X162306000Y-77978000D01*
X103124000Y-78740000D02*
X103886000Y-77978000D01*
D28*
X111030000Y-82804000D02*
X109126000Y-82804000D01*
X109126000Y-82804000D02*
X106840000Y-85090000D01*
X140081000Y-128651000D02*
X138684000Y-127254000D01*
X138684000Y-127254000D02*
X135890000Y-127254000D01*
X135890000Y-127254000D02*
X131086860Y-127254000D01*
D26*
X104013000Y-123190000D02*
X118110000Y-123190000D01*
X118110000Y-123190000D02*
X126111000Y-131191000D01*
X126111000Y-131191000D02*
X130270000Y-131191000D01*
X130270000Y-131191000D02*
X132207000Y-129254000D01*
X132207000Y-129254000D02*
X132207000Y-129540000D01*
D30*
X97790000Y-105918000D02*
X97790000Y-121412000D01*
X97790000Y-121412000D02*
X99568000Y-123190000D01*
X99568000Y-123190000D02*
X104013000Y-123190000D01*
X104013000Y-123190000D02*
X105410000Y-124587000D01*
X105410000Y-124587000D02*
X105791000Y-124968000D01*
X105791000Y-124968000D02*
X105791000Y-133858000D01*
D29*
X100584000Y-80010000D02*
X100584000Y-84234000D01*
X100584000Y-84234000D02*
X101440000Y-85090000D01*
D28*
X132207000Y-129254000D02*
X132207000Y-129794000D01*
X132207000Y-129254000D02*
X132112000Y-129254000D01*
X132112000Y-129254000D02*
X131445000Y-129921000D01*
D26*
X161544000Y-107442000D02*
X161544000Y-111666000D01*
X161544000Y-111666000D02*
X162400000Y-112522000D01*
X141224000Y-107442000D02*
X141224000Y-111666000D01*
X120904000Y-107442000D02*
X120904000Y-111666000D01*
X120904000Y-111666000D02*
X121760000Y-112522000D01*
D29*
X100584000Y-107442000D02*
X100584000Y-111666000D01*
X100584000Y-111666000D02*
X101440000Y-112522000D01*
D26*
X161544000Y-80010000D02*
X161544000Y-84234000D01*
X161544000Y-84234000D02*
X162400000Y-85090000D01*
X141287500Y-80010000D02*
X141287500Y-84234000D01*
X141287500Y-84234000D02*
X142143500Y-85090000D01*
X120904000Y-80010000D02*
X120904000Y-84234000D01*
X120904000Y-84234000D02*
X121760000Y-85090000D01*
X141224000Y-111666000D02*
X142080000Y-112522000D01*
D28*
X131499860Y-128673860D02*
X132080000Y-129254000D01*
X137668000Y-133731000D02*
X137668000Y-129508000D01*
X137668000Y-129508000D02*
X137414000Y-129254000D01*
D26*
X130048000Y-133731000D02*
X110998000Y-133731000D01*
X110998000Y-133731000D02*
X110871000Y-133858000D01*
D25*
X110002000Y-126746000D02*
X115318020Y-126746000D01*
X115318020Y-126746000D02*
X115826540Y-127254520D01*
X110871000Y-133858000D02*
X110871000Y-127615000D01*
X110871000Y-127615000D02*
X110002000Y-126746000D01*
D26*
X130048000Y-133731000D02*
X132588000Y-133731000D01*
X132588000Y-133731000D02*
X135128000Y-133731000D01*
X135128000Y-133731000D02*
X137668000Y-133731000D01*
X137668000Y-133731000D02*
X140208000Y-133731000D01*
X140208000Y-133731000D02*
X142748000Y-133731000D01*
X142748000Y-133731000D02*
X145288000Y-133731000D01*
X145288000Y-133731000D02*
X147828000Y-133731000D01*
X147828000Y-133731000D02*
X150368000Y-133731000D01*
X150368000Y-133731000D02*
X152908000Y-133731000D01*
D28*
X136833860Y-128673860D02*
X137414000Y-129254000D01*
X134874000Y-125834140D02*
X136833860Y-125834140D01*
X136833860Y-125834140D02*
X137414000Y-125254000D01*
X129667000Y-125834140D02*
X131626860Y-125834140D01*
X131626860Y-125834140D02*
X132207000Y-125254000D01*
X140081000Y-125834140D02*
X142040860Y-125834140D01*
X142040860Y-125834140D02*
X142621000Y-125254000D01*
D27*
X184992000Y-100584000D02*
X178308000Y-100584000D01*
D26*
X147828000Y-127127000D02*
X150368000Y-127127000D01*
X150368000Y-127127000D02*
X152908000Y-127127000D01*
X152908000Y-127127000D02*
X156972000Y-131191000D01*
X156972000Y-131191000D02*
X158242000Y-131191000D01*
X158242000Y-131191000D02*
X162433000Y-131191000D01*
X162433000Y-131191000D02*
X165989000Y-131191000D01*
X165989000Y-131191000D02*
X169545000Y-131191000D01*
X169545000Y-131191000D02*
X173101000Y-131191000D01*
X173101000Y-131191000D02*
X176657000Y-131191000D01*
X176657000Y-131191000D02*
X180213000Y-131191000D01*
X180213000Y-131191000D02*
X183769000Y-131191000D01*
X183769000Y-131191000D02*
X187325000Y-131191000D01*
D28*
X147828000Y-127127000D02*
X144748000Y-127127000D01*
X144748000Y-127127000D02*
X142621000Y-129254000D01*
X142040860Y-128673860D02*
X142621000Y-129254000D01*
D27*
X176784000Y-107442000D02*
X178054000Y-108712000D01*
X178054000Y-108712000D02*
X178054000Y-113792000D01*
X156464000Y-107442000D02*
X157734000Y-108712000D01*
X157734000Y-108712000D02*
X157734000Y-113792000D01*
X136144000Y-107442000D02*
X137414000Y-108712000D01*
X137414000Y-108712000D02*
X137414000Y-113792000D01*
X115824000Y-107442000D02*
X117094000Y-108712000D01*
X117094000Y-108712000D02*
X117094000Y-113792000D01*
X178054000Y-81280000D02*
X178054000Y-86360000D01*
X176784000Y-80010000D02*
X178054000Y-81280000D01*
X156527500Y-80010000D02*
X156527500Y-80327500D01*
X156527500Y-80327500D02*
X157797500Y-81597500D01*
X157797500Y-81597500D02*
X157797500Y-86360000D01*
X136144000Y-80010000D02*
X136144000Y-80264000D01*
X136144000Y-80264000D02*
X137414000Y-81534000D01*
X137414000Y-81534000D02*
X137414000Y-86360000D01*
D28*
X112014000Y-86360000D02*
X114554000Y-86360000D01*
X114554000Y-86360000D02*
X117094000Y-86360000D01*
D27*
X115824000Y-80010000D02*
X115824000Y-80264000D01*
X115824000Y-80264000D02*
X117094000Y-81534000D01*
X117094000Y-81534000D02*
X117094000Y-86360000D01*
D28*
X115824000Y-80010000D02*
X115824000Y-80264000D01*
D27*
X115824000Y-80010000D02*
X115824000Y-80264000D01*
D26*
X115824000Y-80010000D02*
X115824000Y-80264000D01*
D27*
X115824000Y-80010000D02*
X115824000Y-80264000D01*
X115824000Y-80010000D02*
X116078000Y-80010000D01*
D28*
X172974000Y-113792000D02*
X175514000Y-113792000D01*
X175514000Y-113792000D02*
X178054000Y-113792000D01*
X178054000Y-113792000D02*
X179578000Y-113792000D01*
X179578000Y-113792000D02*
X180086000Y-114300000D01*
X180086000Y-114300000D02*
X180086000Y-116586000D01*
X180086000Y-116586000D02*
X178562000Y-118110000D01*
X178562000Y-118110000D02*
X166592000Y-118110000D01*
X166592000Y-118110000D02*
X166084000Y-117602000D01*
X157734000Y-113792000D02*
X159258000Y-113792000D01*
X159258000Y-113792000D02*
X159766000Y-114300000D01*
X159766000Y-114300000D02*
X159766000Y-116586000D01*
X159766000Y-116586000D02*
X158242000Y-118110000D01*
X158242000Y-118110000D02*
X146812000Y-118110000D01*
X146812000Y-118110000D02*
X146304000Y-117602000D01*
X146304000Y-117602000D02*
X145764000Y-117602000D01*
X152654000Y-113792000D02*
X155194000Y-113792000D01*
X155194000Y-113792000D02*
X157734000Y-113792000D01*
X132334000Y-113792000D02*
X134874000Y-113792000D01*
X134874000Y-113792000D02*
X137414000Y-113792000D01*
X137414000Y-113792000D02*
X138938000Y-113792000D01*
X138938000Y-113792000D02*
X139446000Y-114300000D01*
X139446000Y-114300000D02*
X139446000Y-116586000D01*
X139446000Y-116586000D02*
X137922000Y-118110000D01*
X137922000Y-118110000D02*
X126492000Y-118110000D01*
X126492000Y-118110000D02*
X125984000Y-117602000D01*
X125984000Y-117602000D02*
X125444000Y-117602000D01*
X112014000Y-113792000D02*
X114554000Y-113792000D01*
X114554000Y-113792000D02*
X117094000Y-113792000D01*
X117094000Y-113792000D02*
X118618000Y-113792000D01*
X118618000Y-113792000D02*
X119126000Y-114300000D01*
X119126000Y-114300000D02*
X119126000Y-117094000D01*
X119126000Y-117094000D02*
X118110000Y-118110000D01*
X118110000Y-118110000D02*
X105632000Y-118110000D01*
X105632000Y-118110000D02*
X105124000Y-117602000D01*
X172974000Y-86360000D02*
X175514000Y-86360000D01*
X175514000Y-86360000D02*
X178054000Y-86360000D01*
X178054000Y-86360000D02*
X179578000Y-86360000D01*
X179578000Y-86360000D02*
X180086000Y-86868000D01*
X180086000Y-86868000D02*
X180086000Y-89154000D01*
X180086000Y-89154000D02*
X178816000Y-90424000D01*
X178816000Y-90424000D02*
X166338000Y-90424000D01*
X166338000Y-90424000D02*
X166084000Y-90170000D01*
X152717500Y-86360000D02*
X155257500Y-86360000D01*
X155257500Y-86360000D02*
X157797500Y-86360000D01*
X157797500Y-86360000D02*
X159258000Y-86360000D01*
X159258000Y-86360000D02*
X159766000Y-86868000D01*
X159766000Y-86868000D02*
X159766000Y-89662000D01*
X159766000Y-89662000D02*
X159004000Y-90424000D01*
X159004000Y-90424000D02*
X146812000Y-90424000D01*
X146812000Y-90424000D02*
X146558000Y-90170000D01*
X146558000Y-90170000D02*
X145827500Y-90170000D01*
X156527500Y-80010000D02*
X156527500Y-80327500D01*
X132334000Y-86360000D02*
X134874000Y-86360000D01*
X134874000Y-86360000D02*
X137414000Y-86360000D01*
X137414000Y-86360000D02*
X138938000Y-86360000D01*
X138938000Y-86360000D02*
X139192000Y-86614000D01*
X139192000Y-86614000D02*
X139192000Y-89662000D01*
X139192000Y-89662000D02*
X138430000Y-90424000D01*
X138430000Y-90424000D02*
X125698000Y-90424000D01*
X125698000Y-90424000D02*
X125444000Y-90170000D01*
X136144000Y-80010000D02*
X136144000Y-80264000D01*
X105378000Y-90424000D02*
X105124000Y-90170000D01*
X118872000Y-89408000D02*
X117856000Y-90424000D01*
X117856000Y-90424000D02*
X105378000Y-90424000D01*
X117856000Y-90424000D02*
X105378000Y-90424000D01*
X118872000Y-89408000D02*
X117856000Y-90424000D01*
X105378000Y-90424000D02*
X105124000Y-90170000D01*
X117094000Y-86360000D02*
X118618000Y-86360000D01*
X118872000Y-86614000D02*
X118872000Y-89408000D01*
X118618000Y-86360000D02*
X118872000Y-86614000D01*
X115824000Y-80010000D02*
X115824000Y-80518000D01*
D31*
X184992000Y-98044000D02*
X184785000Y-98044000D01*
X184785000Y-98044000D02*
X181864000Y-95123000D01*
X181864000Y-95123000D02*
X159639000Y-95123000D01*
X159639000Y-95123000D02*
X159004000Y-94488000D01*
X159004000Y-94488000D02*
X120142000Y-94488000D01*
X120142000Y-94488000D02*
X118364000Y-92710000D01*
X138684000Y-92710000D02*
X139954000Y-93980000D01*
X139954000Y-93980000D02*
X159512000Y-93980000D01*
X159512000Y-93980000D02*
X160147000Y-94615000D01*
X160147000Y-94615000D02*
X184103000Y-94615000D01*
X184103000Y-94615000D02*
X184992000Y-95504000D01*
X159067500Y-92710000D02*
X159067500Y-92773500D01*
X159067500Y-92773500D02*
X160274000Y-93980000D01*
X160274000Y-93980000D02*
X180340000Y-93980000D01*
X180340000Y-93980000D02*
X181356000Y-92964000D01*
X181356000Y-92964000D02*
X184992000Y-92964000D01*
X184992000Y-90424000D02*
X181610000Y-90424000D01*
X181610000Y-90424000D02*
X179324000Y-92710000D01*
X190373000Y-105283000D02*
X190373000Y-107823000D01*
X190373000Y-107823000D02*
X188722000Y-109474000D01*
X188722000Y-109474000D02*
X184404000Y-109474000D01*
X184404000Y-109474000D02*
X183896000Y-109982000D01*
X183896000Y-109982000D02*
X183007000Y-109982000D01*
X183007000Y-109982000D02*
X182372000Y-110617000D01*
X118364000Y-120142000D02*
X118491000Y-120142000D01*
X118491000Y-120142000D02*
X120523000Y-122174000D01*
X120523000Y-122174000D02*
X180467000Y-122174000D01*
X180467000Y-122174000D02*
X182372000Y-120269000D01*
X182372000Y-120269000D02*
X182372000Y-110617000D01*
X190373000Y-105283000D02*
X190373000Y-93265000D01*
X190373000Y-93265000D02*
X187532000Y-90424000D01*
X189865000Y-103251000D02*
X189865000Y-105791000D01*
X189865000Y-105791000D02*
X188722000Y-106934000D01*
X188722000Y-106934000D02*
X183134000Y-106934000D01*
X183134000Y-106934000D02*
X181864000Y-108204000D01*
X187532000Y-92964000D02*
X187579000Y-92964000D01*
X187579000Y-92964000D02*
X189865000Y-95250000D01*
X189865000Y-95250000D02*
X189865000Y-103251000D01*
X181864000Y-108204000D02*
X181864000Y-120142000D01*
X181864000Y-120142000D02*
X180213000Y-121793000D01*
X180213000Y-121793000D02*
X140335000Y-121793000D01*
X140335000Y-121793000D02*
X138684000Y-120142000D01*
X189357000Y-101346000D02*
X189357000Y-103759000D01*
X189357000Y-103759000D02*
X188722000Y-104394000D01*
X188722000Y-104394000D02*
X183261000Y-104394000D01*
X183261000Y-104394000D02*
X181356000Y-106299000D01*
X159004000Y-120142000D02*
X159004000Y-120396000D01*
X159004000Y-120396000D02*
X160020000Y-121412000D01*
X160020000Y-121412000D02*
X179959000Y-121412000D01*
X179959000Y-121412000D02*
X181356000Y-120015000D01*
X181356000Y-120015000D02*
X181356000Y-106299000D01*
X189357000Y-101346000D02*
X189357000Y-97329000D01*
X189357000Y-97329000D02*
X187532000Y-95504000D01*
X186262000Y-99314000D02*
X186262000Y-101266000D01*
X186262000Y-101266000D02*
X185674000Y-101854000D01*
X185674000Y-101854000D02*
X181864000Y-101854000D01*
X181864000Y-101854000D02*
X180848000Y-102870000D01*
X179324000Y-120142000D02*
X179324000Y-118745000D01*
X179324000Y-118745000D02*
X180848000Y-117221000D01*
X180848000Y-117221000D02*
X180848000Y-102870000D01*
X186262000Y-99314000D02*
X187532000Y-98044000D01*
D28*
X162814000Y-103124000D02*
X170180000Y-95758000D01*
X183134000Y-98094800D02*
X183134000Y-98044000D01*
X183134000Y-98044000D02*
X180848000Y-95758000D01*
X180848000Y-95758000D02*
X170180000Y-95758000D01*
X170180000Y-95758000D02*
X158750000Y-95758000D01*
X158750000Y-95758000D02*
X157988000Y-94996000D01*
X157988000Y-94996000D02*
X102870000Y-94996000D01*
X102870000Y-94996000D02*
X100584000Y-92710000D01*
X141764000Y-117602000D02*
X141764000Y-119602000D01*
X101124000Y-117602000D02*
X101124000Y-119602000D01*
X101124000Y-119602000D02*
X100584000Y-120142000D01*
X121444000Y-117602000D02*
X121444000Y-119602000D01*
X121444000Y-119602000D02*
X120904000Y-120142000D01*
X141764000Y-119602000D02*
X141224000Y-120142000D01*
X162084000Y-117602000D02*
X162084000Y-119602000D01*
X162084000Y-119602000D02*
X161544000Y-120142000D01*
X162084000Y-90170000D02*
X162084000Y-92170000D01*
X162084000Y-92170000D02*
X161544000Y-92710000D01*
X141827500Y-90170000D02*
X141827500Y-92170000D01*
X141827500Y-92170000D02*
X141287500Y-92710000D01*
X121444000Y-90170000D02*
X121444000Y-92170000D01*
X121444000Y-92170000D02*
X120904000Y-92710000D01*
X101124000Y-90170000D02*
X101124000Y-92170000D01*
X101124000Y-92170000D02*
X100584000Y-92710000D01*
D31*
X184992000Y-110744000D02*
X183388000Y-110744000D01*
X183388000Y-110744000D02*
X182880000Y-111252000D01*
X182880000Y-111252000D02*
X182880000Y-120396000D01*
X182880000Y-120396000D02*
X180594000Y-122682000D01*
X180594000Y-122682000D02*
X175514000Y-122682000D01*
X175514000Y-122682000D02*
X169545000Y-128651000D01*
X184992000Y-113284000D02*
X183845200Y-113284000D01*
X183845200Y-113284000D02*
X183286400Y-113842800D01*
X183286400Y-113842800D02*
X183286400Y-120650000D01*
X183286400Y-120650000D02*
X180746400Y-123190000D01*
X180746400Y-123190000D02*
X178562000Y-123190000D01*
X178562000Y-123190000D02*
X173101000Y-128651000D01*
X187532000Y-110744000D02*
X186994800Y-110744000D01*
X186994800Y-110744000D02*
X186283600Y-111455200D01*
X186283600Y-111455200D02*
X186283600Y-122580400D01*
X186283600Y-122580400D02*
X180213000Y-128651000D01*
D28*
X109982000Y-86868000D02*
X109982000Y-86106000D01*
X112998000Y-84836000D02*
X115030000Y-82804000D01*
X111252000Y-84836000D02*
X112998000Y-84836000D01*
X109982000Y-86106000D02*
X111252000Y-84836000D01*
X109982000Y-86868000D02*
X112014000Y-88900000D01*
X109982000Y-86868000D02*
X112014000Y-88900000D01*
X115030000Y-82804000D02*
X114300000Y-82804000D01*
X132334000Y-88900000D02*
X130302000Y-86868000D01*
X133318000Y-84836000D02*
X135350000Y-82804000D01*
X131318000Y-84836000D02*
X133318000Y-84836000D01*
X130302000Y-85852000D02*
X131318000Y-84836000D01*
X130302000Y-86868000D02*
X130302000Y-85852000D01*
X152717500Y-88900000D02*
X152717500Y-88709500D01*
X152717500Y-88709500D02*
X150622000Y-86614000D01*
X150622000Y-86614000D02*
X150622000Y-85598000D01*
X150622000Y-85598000D02*
X151384000Y-84836000D01*
X151384000Y-84836000D02*
X153701500Y-84836000D01*
X153701500Y-84836000D02*
X155733500Y-82804000D01*
X172974000Y-88900000D02*
X170942000Y-86868000D01*
X170942000Y-86868000D02*
X170942000Y-85598000D01*
X170942000Y-85598000D02*
X171704000Y-84836000D01*
X171704000Y-84836000D02*
X173958000Y-84836000D01*
X173958000Y-84836000D02*
X175990000Y-82804000D01*
X112014000Y-116332000D02*
X111760000Y-116332000D01*
X111760000Y-116332000D02*
X110236000Y-114808000D01*
X110236000Y-114808000D02*
X110236000Y-113284000D01*
X110236000Y-113284000D02*
X111506000Y-112014000D01*
X111506000Y-112014000D02*
X113252000Y-112014000D01*
X113252000Y-112014000D02*
X115030000Y-110236000D01*
X132334000Y-116332000D02*
X132080000Y-116332000D01*
X132080000Y-116332000D02*
X130556000Y-114808000D01*
X130556000Y-114808000D02*
X130556000Y-113284000D01*
X130556000Y-113284000D02*
X131826000Y-112014000D01*
X131826000Y-112014000D02*
X133572000Y-112014000D01*
X133572000Y-112014000D02*
X135350000Y-110236000D01*
X132334000Y-116332000D02*
X132080000Y-116332000D01*
X152654000Y-116332000D02*
X152400000Y-116332000D01*
X152400000Y-116332000D02*
X150876000Y-114808000D01*
X150876000Y-114808000D02*
X150876000Y-113030000D01*
X150876000Y-113030000D02*
X151892000Y-112014000D01*
X151892000Y-112014000D02*
X153892000Y-112014000D01*
X153892000Y-112014000D02*
X155670000Y-110236000D01*
X172974000Y-116332000D02*
X172720000Y-116332000D01*
X172720000Y-116332000D02*
X171196000Y-114808000D01*
X171196000Y-114808000D02*
X171196000Y-113030000D01*
X171196000Y-113030000D02*
X172212000Y-112014000D01*
X172212000Y-112014000D02*
X174212000Y-112014000D01*
X174212000Y-112014000D02*
X175990000Y-110236000D01*
D25*
X99802000Y-126746000D02*
X99802000Y-133751000D01*
X99802000Y-133751000D02*
X99695000Y-133858000D01*
M02*
