G04 #@! TF.FileFunction,Soldermask,Bot*
%FSLAX46Y46*%
G04 Gerber Fmt 4.6, Leading zero omitted, Abs format (unit mm)*
G04 Created by KiCad (PCBNEW 4.0.4+e1-6308~48~ubuntu15.10.1-stable) date Thu Dec  8 14:35:49 2016*
%MOMM*%
%LPD*%
G01*
G04 APERTURE LIST*
%ADD10C,0.100000*%
%ADD11C,1.727200*%
%ADD12R,1.727200X1.727200*%
%ADD13C,2.200000*%
%ADD14O,1.727200X1.727200*%
%ADD15R,1.727200X2.032000*%
%ADD16O,1.727200X2.032000*%
%ADD17R,2.032000X1.727200*%
%ADD18O,2.032000X1.727200*%
G04 APERTURE END LIST*
D10*
D11*
X110002000Y-126746000D03*
X99802000Y-126746000D03*
X115826540Y-137414520D03*
D12*
X115826540Y-127254520D03*
D13*
X102997000Y-97917000D03*
X187452000Y-137287000D03*
D12*
X184992000Y-77724000D03*
D14*
X187532000Y-77724000D03*
X184992000Y-80264000D03*
X187532000Y-80264000D03*
X184992000Y-82804000D03*
X187532000Y-82804000D03*
X184992000Y-85344000D03*
X187532000Y-85344000D03*
X184992000Y-87884000D03*
X187532000Y-87884000D03*
X184992000Y-90424000D03*
X187532000Y-90424000D03*
X184992000Y-92964000D03*
X187532000Y-92964000D03*
X184992000Y-95504000D03*
X187532000Y-95504000D03*
X184992000Y-98044000D03*
X187532000Y-98044000D03*
X184992000Y-100584000D03*
X187532000Y-100584000D03*
X184992000Y-103124000D03*
X187532000Y-103124000D03*
X184992000Y-105664000D03*
X187532000Y-105664000D03*
X184992000Y-108204000D03*
X187532000Y-108204000D03*
X184992000Y-110744000D03*
X187532000Y-110744000D03*
X184992000Y-113284000D03*
X187532000Y-113284000D03*
X184992000Y-115824000D03*
X187532000Y-115824000D03*
X184992000Y-118364000D03*
X187532000Y-118364000D03*
X184992000Y-120904000D03*
X187532000Y-120904000D03*
D12*
X152654000Y-116332000D03*
D14*
X152654000Y-113792000D03*
X155194000Y-116332000D03*
X155194000Y-113792000D03*
X157734000Y-116332000D03*
X157734000Y-113792000D03*
D12*
X112014000Y-116332000D03*
D14*
X112014000Y-113792000D03*
X114554000Y-116332000D03*
X114554000Y-113792000D03*
X117094000Y-116332000D03*
X117094000Y-113792000D03*
D12*
X132334000Y-116332000D03*
D14*
X132334000Y-113792000D03*
X134874000Y-116332000D03*
X134874000Y-113792000D03*
X137414000Y-116332000D03*
X137414000Y-113792000D03*
D12*
X172974000Y-116332000D03*
D14*
X172974000Y-113792000D03*
X175514000Y-116332000D03*
X175514000Y-113792000D03*
X178054000Y-116332000D03*
X178054000Y-113792000D03*
D12*
X172974000Y-88900000D03*
D14*
X172974000Y-86360000D03*
X175514000Y-88900000D03*
X175514000Y-86360000D03*
X178054000Y-88900000D03*
X178054000Y-86360000D03*
D12*
X152717500Y-88900000D03*
D14*
X152717500Y-86360000D03*
X155257500Y-88900000D03*
X155257500Y-86360000D03*
X157797500Y-88900000D03*
X157797500Y-86360000D03*
D12*
X132334000Y-88900000D03*
D14*
X132334000Y-86360000D03*
X134874000Y-88900000D03*
X134874000Y-86360000D03*
X137414000Y-88900000D03*
X137414000Y-86360000D03*
D12*
X112014000Y-88900000D03*
D14*
X112014000Y-86360000D03*
X114554000Y-88900000D03*
X114554000Y-86360000D03*
X117094000Y-88900000D03*
X117094000Y-86360000D03*
D12*
X130048000Y-136271000D03*
D14*
X130048000Y-133731000D03*
X132588000Y-136271000D03*
X132588000Y-133731000D03*
X135128000Y-136271000D03*
X135128000Y-133731000D03*
X137668000Y-136271000D03*
X137668000Y-133731000D03*
X140208000Y-136271000D03*
X140208000Y-133731000D03*
X142748000Y-136271000D03*
X142748000Y-133731000D03*
X145288000Y-136271000D03*
X145288000Y-133731000D03*
X147828000Y-136271000D03*
X147828000Y-133731000D03*
X150368000Y-136271000D03*
X150368000Y-133731000D03*
X152908000Y-136271000D03*
X152908000Y-133731000D03*
D12*
X147828000Y-129667000D03*
D14*
X147828000Y-127127000D03*
X150368000Y-129667000D03*
X150368000Y-127127000D03*
X152908000Y-129667000D03*
X152908000Y-127127000D03*
D15*
X105664000Y-75946000D03*
D16*
X108204000Y-75946000D03*
X110744000Y-75946000D03*
X113284000Y-75946000D03*
D15*
X125984000Y-75946000D03*
D16*
X128524000Y-75946000D03*
X131064000Y-75946000D03*
X133604000Y-75946000D03*
D15*
X146367500Y-75946000D03*
D16*
X148907500Y-75946000D03*
X151447500Y-75946000D03*
X153987500Y-75946000D03*
D15*
X166624000Y-75946000D03*
D16*
X169164000Y-75946000D03*
X171704000Y-75946000D03*
X174244000Y-75946000D03*
D15*
X105664000Y-103378000D03*
D16*
X108204000Y-103378000D03*
X110744000Y-103378000D03*
X113284000Y-103378000D03*
D15*
X125984000Y-103378000D03*
D16*
X128524000Y-103378000D03*
X131064000Y-103378000D03*
X133604000Y-103378000D03*
D15*
X146304000Y-103378000D03*
D16*
X148844000Y-103378000D03*
X151384000Y-103378000D03*
X153924000Y-103378000D03*
D15*
X166624000Y-103378000D03*
D16*
X169164000Y-103378000D03*
X171704000Y-103378000D03*
X174244000Y-103378000D03*
D17*
X162433000Y-133731000D03*
D18*
X162433000Y-131191000D03*
X162433000Y-128651000D03*
D17*
X165989000Y-133731000D03*
D18*
X165989000Y-131191000D03*
X165989000Y-128651000D03*
D17*
X169545000Y-133731000D03*
D18*
X169545000Y-131191000D03*
X169545000Y-128651000D03*
D17*
X173101000Y-133731000D03*
D18*
X173101000Y-131191000D03*
X173101000Y-128651000D03*
D17*
X176657000Y-133731000D03*
D18*
X176657000Y-131191000D03*
X176657000Y-128651000D03*
D17*
X180213000Y-133731000D03*
D18*
X180213000Y-131191000D03*
X180213000Y-128651000D03*
D17*
X183769000Y-133731000D03*
D18*
X183769000Y-131191000D03*
X183769000Y-128651000D03*
D17*
X187325000Y-133731000D03*
D18*
X187325000Y-131191000D03*
X187325000Y-128651000D03*
D17*
X158242000Y-133731000D03*
D18*
X158242000Y-131191000D03*
X158242000Y-128651000D03*
D13*
X187452000Y-74422000D03*
D12*
X179324000Y-107442000D03*
D11*
X176784000Y-107442000D03*
X174244000Y-107442000D03*
X171704000Y-107442000D03*
X169164000Y-107442000D03*
X166624000Y-107442000D03*
D12*
X164084000Y-107442000D03*
D11*
X161544000Y-107442000D03*
X161544000Y-120142000D03*
X164084000Y-120142000D03*
X166624000Y-120142000D03*
X169164000Y-120142000D03*
X171704000Y-120142000D03*
X174244000Y-120142000D03*
X176784000Y-120142000D03*
X179324000Y-120142000D03*
D12*
X159004000Y-107442000D03*
D11*
X156464000Y-107442000D03*
X153924000Y-107442000D03*
X151384000Y-107442000D03*
X148844000Y-107442000D03*
X146304000Y-107442000D03*
D12*
X143764000Y-107442000D03*
D11*
X141224000Y-107442000D03*
X141224000Y-120142000D03*
X143764000Y-120142000D03*
X146304000Y-120142000D03*
X148844000Y-120142000D03*
X151384000Y-120142000D03*
X153924000Y-120142000D03*
X156464000Y-120142000D03*
X159004000Y-120142000D03*
D12*
X138684000Y-107442000D03*
D11*
X136144000Y-107442000D03*
X133604000Y-107442000D03*
X131064000Y-107442000D03*
X128524000Y-107442000D03*
X125984000Y-107442000D03*
D12*
X123444000Y-107442000D03*
D11*
X120904000Y-107442000D03*
X120904000Y-120142000D03*
X123444000Y-120142000D03*
X125984000Y-120142000D03*
X128524000Y-120142000D03*
X131064000Y-120142000D03*
X133604000Y-120142000D03*
X136144000Y-120142000D03*
X138684000Y-120142000D03*
D12*
X118364000Y-107442000D03*
D11*
X115824000Y-107442000D03*
X113284000Y-107442000D03*
X110744000Y-107442000D03*
X108204000Y-107442000D03*
X105664000Y-107442000D03*
D12*
X103124000Y-107442000D03*
D11*
X100584000Y-107442000D03*
X100584000Y-120142000D03*
X103124000Y-120142000D03*
X105664000Y-120142000D03*
X108204000Y-120142000D03*
X110744000Y-120142000D03*
X113284000Y-120142000D03*
X115824000Y-120142000D03*
X118364000Y-120142000D03*
D12*
X179324000Y-80010000D03*
D11*
X176784000Y-80010000D03*
X174244000Y-80010000D03*
X171704000Y-80010000D03*
X169164000Y-80010000D03*
X166624000Y-80010000D03*
D12*
X164084000Y-80010000D03*
D11*
X161544000Y-80010000D03*
X161544000Y-92710000D03*
X164084000Y-92710000D03*
X166624000Y-92710000D03*
X169164000Y-92710000D03*
X171704000Y-92710000D03*
X174244000Y-92710000D03*
X176784000Y-92710000D03*
X179324000Y-92710000D03*
D12*
X159067500Y-80010000D03*
D11*
X156527500Y-80010000D03*
X153987500Y-80010000D03*
X151447500Y-80010000D03*
X148907500Y-80010000D03*
X146367500Y-80010000D03*
D12*
X143827500Y-80010000D03*
D11*
X141287500Y-80010000D03*
X141287500Y-92710000D03*
X143827500Y-92710000D03*
X146367500Y-92710000D03*
X148907500Y-92710000D03*
X151447500Y-92710000D03*
X153987500Y-92710000D03*
X156527500Y-92710000D03*
X159067500Y-92710000D03*
D12*
X138684000Y-80010000D03*
D11*
X136144000Y-80010000D03*
X133604000Y-80010000D03*
X131064000Y-80010000D03*
X128524000Y-80010000D03*
X125984000Y-80010000D03*
D12*
X123444000Y-80010000D03*
D11*
X120904000Y-80010000D03*
X120904000Y-92710000D03*
X123444000Y-92710000D03*
X125984000Y-92710000D03*
X128524000Y-92710000D03*
X131064000Y-92710000D03*
X133604000Y-92710000D03*
X136144000Y-92710000D03*
X138684000Y-92710000D03*
D12*
X118364000Y-80010000D03*
D11*
X115824000Y-80010000D03*
X113284000Y-80010000D03*
X110744000Y-80010000D03*
X108204000Y-80010000D03*
X105664000Y-80010000D03*
D12*
X103124000Y-80010000D03*
D11*
X100584000Y-80010000D03*
X100584000Y-92710000D03*
X103124000Y-92710000D03*
X105664000Y-92710000D03*
X108204000Y-92710000D03*
X110744000Y-92710000D03*
X113284000Y-92710000D03*
X115824000Y-92710000D03*
X118364000Y-92710000D03*
M02*
