G04 #@! TF.FileFunction,Copper,L2,Bot,Signal*
%FSLAX46Y46*%
G04 Gerber Fmt 4.6, Leading zero omitted, Abs format (unit mm)*
G04 Created by KiCad (PCBNEW 4.0.4+e1-6308~48~ubuntu15.10.1-stable) date Thu Dec  8 14:35:49 2016*
%MOMM*%
%LPD*%
G01*
G04 APERTURE LIST*
%ADD10C,0.100000*%
%ADD11C,1.727200*%
%ADD12R,1.727200X1.727200*%
%ADD13O,1.981200X3.962400*%
%ADD14O,1.727200X1.727200*%
%ADD15R,1.727200X2.032000*%
%ADD16O,1.727200X2.032000*%
%ADD17R,2.032000X1.727200*%
%ADD18O,2.032000X1.727200*%
%ADD19C,2.032000*%
%ADD20C,0.609600*%
%ADD21C,3.048000*%
%ADD22C,0.762000*%
%ADD23C,1.270000*%
%ADD24C,2.540000*%
%ADD25C,2.032000*%
%ADD26C,0.508000*%
%ADD27C,0.152400*%
%ADD28C,0.254000*%
G04 APERTURE END LIST*
D10*
D11*
X110002000Y-126746000D03*
X99802000Y-126746000D03*
X115826540Y-137414520D03*
D12*
X115826540Y-127254520D03*
D13*
X99695000Y-133858000D03*
X94615000Y-133858000D03*
D12*
X184992000Y-77724000D03*
D14*
X187532000Y-77724000D03*
X184992000Y-80264000D03*
X187532000Y-80264000D03*
X184992000Y-82804000D03*
X187532000Y-82804000D03*
X184992000Y-85344000D03*
X187532000Y-85344000D03*
X184992000Y-87884000D03*
X187532000Y-87884000D03*
X184992000Y-90424000D03*
X187532000Y-90424000D03*
X184992000Y-92964000D03*
X187532000Y-92964000D03*
X184992000Y-95504000D03*
X187532000Y-95504000D03*
X184992000Y-98044000D03*
X187532000Y-98044000D03*
X184992000Y-100584000D03*
X187532000Y-100584000D03*
X184992000Y-103124000D03*
X187532000Y-103124000D03*
X184992000Y-105664000D03*
X187532000Y-105664000D03*
X184992000Y-108204000D03*
X187532000Y-108204000D03*
X184992000Y-110744000D03*
X187532000Y-110744000D03*
X184992000Y-113284000D03*
X187532000Y-113284000D03*
X184992000Y-115824000D03*
X187532000Y-115824000D03*
X184992000Y-118364000D03*
X187532000Y-118364000D03*
X184992000Y-120904000D03*
X187532000Y-120904000D03*
D12*
X152654000Y-116332000D03*
D14*
X152654000Y-113792000D03*
X155194000Y-116332000D03*
X155194000Y-113792000D03*
X157734000Y-116332000D03*
X157734000Y-113792000D03*
D12*
X112014000Y-116332000D03*
D14*
X112014000Y-113792000D03*
X114554000Y-116332000D03*
X114554000Y-113792000D03*
X117094000Y-116332000D03*
X117094000Y-113792000D03*
D12*
X132334000Y-116332000D03*
D14*
X132334000Y-113792000D03*
X134874000Y-116332000D03*
X134874000Y-113792000D03*
X137414000Y-116332000D03*
X137414000Y-113792000D03*
D12*
X172974000Y-116332000D03*
D14*
X172974000Y-113792000D03*
X175514000Y-116332000D03*
X175514000Y-113792000D03*
X178054000Y-116332000D03*
X178054000Y-113792000D03*
D12*
X172974000Y-88900000D03*
D14*
X172974000Y-86360000D03*
X175514000Y-88900000D03*
X175514000Y-86360000D03*
X178054000Y-88900000D03*
X178054000Y-86360000D03*
D12*
X152717500Y-88900000D03*
D14*
X152717500Y-86360000D03*
X155257500Y-88900000D03*
X155257500Y-86360000D03*
X157797500Y-88900000D03*
X157797500Y-86360000D03*
D12*
X132334000Y-88900000D03*
D14*
X132334000Y-86360000D03*
X134874000Y-88900000D03*
X134874000Y-86360000D03*
X137414000Y-88900000D03*
X137414000Y-86360000D03*
D12*
X112014000Y-88900000D03*
D14*
X112014000Y-86360000D03*
X114554000Y-88900000D03*
X114554000Y-86360000D03*
X117094000Y-88900000D03*
X117094000Y-86360000D03*
D12*
X130048000Y-136271000D03*
D14*
X130048000Y-133731000D03*
X132588000Y-136271000D03*
X132588000Y-133731000D03*
X135128000Y-136271000D03*
X135128000Y-133731000D03*
X137668000Y-136271000D03*
X137668000Y-133731000D03*
X140208000Y-136271000D03*
X140208000Y-133731000D03*
X142748000Y-136271000D03*
X142748000Y-133731000D03*
X145288000Y-136271000D03*
X145288000Y-133731000D03*
X147828000Y-136271000D03*
X147828000Y-133731000D03*
X150368000Y-136271000D03*
X150368000Y-133731000D03*
X152908000Y-136271000D03*
X152908000Y-133731000D03*
D12*
X147828000Y-129667000D03*
D14*
X147828000Y-127127000D03*
X150368000Y-129667000D03*
X150368000Y-127127000D03*
X152908000Y-129667000D03*
X152908000Y-127127000D03*
D15*
X105664000Y-75946000D03*
D16*
X108204000Y-75946000D03*
X110744000Y-75946000D03*
X113284000Y-75946000D03*
D15*
X125984000Y-75946000D03*
D16*
X128524000Y-75946000D03*
X131064000Y-75946000D03*
X133604000Y-75946000D03*
D15*
X146367500Y-75946000D03*
D16*
X148907500Y-75946000D03*
X151447500Y-75946000D03*
X153987500Y-75946000D03*
D15*
X166624000Y-75946000D03*
D16*
X169164000Y-75946000D03*
X171704000Y-75946000D03*
X174244000Y-75946000D03*
D15*
X105664000Y-103378000D03*
D16*
X108204000Y-103378000D03*
X110744000Y-103378000D03*
X113284000Y-103378000D03*
D15*
X125984000Y-103378000D03*
D16*
X128524000Y-103378000D03*
X131064000Y-103378000D03*
X133604000Y-103378000D03*
D15*
X146304000Y-103378000D03*
D16*
X148844000Y-103378000D03*
X151384000Y-103378000D03*
X153924000Y-103378000D03*
D15*
X166624000Y-103378000D03*
D16*
X169164000Y-103378000D03*
X171704000Y-103378000D03*
X174244000Y-103378000D03*
D17*
X162433000Y-133731000D03*
D18*
X162433000Y-131191000D03*
X162433000Y-128651000D03*
D17*
X165989000Y-133731000D03*
D18*
X165989000Y-131191000D03*
X165989000Y-128651000D03*
D17*
X169545000Y-133731000D03*
D18*
X169545000Y-131191000D03*
X169545000Y-128651000D03*
D17*
X173101000Y-133731000D03*
D18*
X173101000Y-131191000D03*
X173101000Y-128651000D03*
D17*
X176657000Y-133731000D03*
D18*
X176657000Y-131191000D03*
X176657000Y-128651000D03*
D17*
X180213000Y-133731000D03*
D18*
X180213000Y-131191000D03*
X180213000Y-128651000D03*
D17*
X183769000Y-133731000D03*
D18*
X183769000Y-131191000D03*
X183769000Y-128651000D03*
D17*
X187325000Y-133731000D03*
D18*
X187325000Y-131191000D03*
X187325000Y-128651000D03*
D17*
X158242000Y-133731000D03*
D18*
X158242000Y-131191000D03*
X158242000Y-128651000D03*
D13*
X110871000Y-133858000D03*
X105791000Y-133858000D03*
D12*
X179324000Y-107442000D03*
D11*
X176784000Y-107442000D03*
X174244000Y-107442000D03*
X171704000Y-107442000D03*
X169164000Y-107442000D03*
X166624000Y-107442000D03*
D12*
X164084000Y-107442000D03*
D11*
X161544000Y-107442000D03*
X161544000Y-120142000D03*
X164084000Y-120142000D03*
X166624000Y-120142000D03*
X169164000Y-120142000D03*
X171704000Y-120142000D03*
X174244000Y-120142000D03*
X176784000Y-120142000D03*
X179324000Y-120142000D03*
D12*
X159004000Y-107442000D03*
D11*
X156464000Y-107442000D03*
X153924000Y-107442000D03*
X151384000Y-107442000D03*
X148844000Y-107442000D03*
X146304000Y-107442000D03*
D12*
X143764000Y-107442000D03*
D11*
X141224000Y-107442000D03*
X141224000Y-120142000D03*
X143764000Y-120142000D03*
X146304000Y-120142000D03*
X148844000Y-120142000D03*
X151384000Y-120142000D03*
X153924000Y-120142000D03*
X156464000Y-120142000D03*
X159004000Y-120142000D03*
D12*
X138684000Y-107442000D03*
D11*
X136144000Y-107442000D03*
X133604000Y-107442000D03*
X131064000Y-107442000D03*
X128524000Y-107442000D03*
X125984000Y-107442000D03*
D12*
X123444000Y-107442000D03*
D11*
X120904000Y-107442000D03*
X120904000Y-120142000D03*
X123444000Y-120142000D03*
X125984000Y-120142000D03*
X128524000Y-120142000D03*
X131064000Y-120142000D03*
X133604000Y-120142000D03*
X136144000Y-120142000D03*
X138684000Y-120142000D03*
D12*
X118364000Y-107442000D03*
D11*
X115824000Y-107442000D03*
X113284000Y-107442000D03*
X110744000Y-107442000D03*
X108204000Y-107442000D03*
X105664000Y-107442000D03*
D12*
X103124000Y-107442000D03*
D11*
X100584000Y-107442000D03*
X100584000Y-120142000D03*
X103124000Y-120142000D03*
X105664000Y-120142000D03*
X108204000Y-120142000D03*
X110744000Y-120142000D03*
X113284000Y-120142000D03*
X115824000Y-120142000D03*
X118364000Y-120142000D03*
D12*
X179324000Y-80010000D03*
D11*
X176784000Y-80010000D03*
X174244000Y-80010000D03*
X171704000Y-80010000D03*
X169164000Y-80010000D03*
X166624000Y-80010000D03*
D12*
X164084000Y-80010000D03*
D11*
X161544000Y-80010000D03*
X161544000Y-92710000D03*
X164084000Y-92710000D03*
X166624000Y-92710000D03*
X169164000Y-92710000D03*
X171704000Y-92710000D03*
X174244000Y-92710000D03*
X176784000Y-92710000D03*
X179324000Y-92710000D03*
D12*
X159067500Y-80010000D03*
D11*
X156527500Y-80010000D03*
X153987500Y-80010000D03*
X151447500Y-80010000D03*
X148907500Y-80010000D03*
X146367500Y-80010000D03*
D12*
X143827500Y-80010000D03*
D11*
X141287500Y-80010000D03*
X141287500Y-92710000D03*
X143827500Y-92710000D03*
X146367500Y-92710000D03*
X148907500Y-92710000D03*
X151447500Y-92710000D03*
X153987500Y-92710000D03*
X156527500Y-92710000D03*
X159067500Y-92710000D03*
D12*
X138684000Y-80010000D03*
D11*
X136144000Y-80010000D03*
X133604000Y-80010000D03*
X131064000Y-80010000D03*
X128524000Y-80010000D03*
X125984000Y-80010000D03*
D12*
X123444000Y-80010000D03*
D11*
X120904000Y-80010000D03*
X120904000Y-92710000D03*
X123444000Y-92710000D03*
X125984000Y-92710000D03*
X128524000Y-92710000D03*
X131064000Y-92710000D03*
X133604000Y-92710000D03*
X136144000Y-92710000D03*
X138684000Y-92710000D03*
D12*
X118364000Y-80010000D03*
D11*
X115824000Y-80010000D03*
X113284000Y-80010000D03*
X110744000Y-80010000D03*
X108204000Y-80010000D03*
X105664000Y-80010000D03*
D12*
X103124000Y-80010000D03*
D11*
X100584000Y-80010000D03*
X100584000Y-92710000D03*
X103124000Y-92710000D03*
X105664000Y-92710000D03*
X108204000Y-92710000D03*
X110744000Y-92710000D03*
X113284000Y-92710000D03*
X115824000Y-92710000D03*
X118364000Y-92710000D03*
D19*
X93980000Y-98552000D03*
X97790000Y-105918000D03*
D20*
X178308000Y-100584000D03*
X162814000Y-103124000D03*
X183134000Y-98094800D03*
D21*
X93980000Y-98552000D02*
X93853000Y-131953000D01*
X93853000Y-131953000D02*
X94615000Y-132715000D01*
X94615000Y-132715000D02*
X94615000Y-133858000D01*
D22*
X115826540Y-137414520D02*
X128904480Y-137414520D01*
X128904480Y-137414520D02*
X130048000Y-136271000D01*
D21*
X94615000Y-133858000D02*
X94615000Y-136144000D01*
X94615000Y-136144000D02*
X96393000Y-137922000D01*
X96393000Y-137922000D02*
X115319060Y-137922000D01*
X115319060Y-137922000D02*
X115826540Y-137414520D01*
D23*
X137668000Y-136271000D02*
X140208000Y-136271000D01*
X140208000Y-136271000D02*
X142748000Y-136271000D01*
X152908000Y-136271000D02*
X150368000Y-136271000D01*
X150368000Y-136271000D02*
X147828000Y-136271000D01*
X147828000Y-136271000D02*
X145288000Y-136271000D01*
X145288000Y-136271000D02*
X145211800Y-136347200D01*
X145211800Y-136347200D02*
X142824200Y-136347200D01*
X142824200Y-136347200D02*
X142748000Y-136271000D01*
X137668000Y-136271000D02*
X135128000Y-136271000D01*
X135128000Y-136271000D02*
X132588000Y-136271000D01*
X132588000Y-136271000D02*
X130048000Y-136271000D01*
D22*
X187325000Y-133731000D02*
X183769000Y-133731000D01*
X183769000Y-133731000D02*
X180213000Y-133731000D01*
X180213000Y-133731000D02*
X176657000Y-133731000D01*
X176657000Y-133731000D02*
X173101000Y-133731000D01*
X173101000Y-133731000D02*
X169545000Y-133731000D01*
X169545000Y-133731000D02*
X165989000Y-133731000D01*
X165989000Y-133731000D02*
X162433000Y-133731000D01*
X162433000Y-133731000D02*
X158242000Y-133731000D01*
X158242000Y-133731000D02*
X155702000Y-136271000D01*
X155702000Y-136271000D02*
X152908000Y-136271000D01*
D24*
X100584000Y-80010000D02*
X99187000Y-80010000D01*
X99187000Y-80010000D02*
X97790000Y-81407000D01*
X97790000Y-81407000D02*
X97790000Y-105918000D01*
X100584000Y-107442000D02*
X100584000Y-112776000D01*
X100584000Y-112776000D02*
X97409000Y-115951000D01*
X97409000Y-115951000D02*
X97409000Y-121031000D01*
X97409000Y-121031000D02*
X99568000Y-123190000D01*
X99568000Y-123190000D02*
X104013000Y-123190000D01*
X104013000Y-123190000D02*
X105791000Y-124968000D01*
X105791000Y-124968000D02*
X105791000Y-133858000D01*
D23*
X119634000Y-82550000D02*
X139954000Y-82550000D01*
D22*
X120904000Y-80010000D02*
X120904000Y-81280000D01*
D23*
X101854000Y-82550000D02*
X118872000Y-82550000D01*
X118872000Y-82550000D02*
X119634000Y-82550000D01*
D22*
X120904000Y-81280000D02*
X119634000Y-82550000D01*
X120904000Y-107442000D02*
X120904000Y-108610400D01*
X120904000Y-108610400D02*
X119532400Y-109982000D01*
D25*
X100584000Y-107442000D02*
X100584000Y-108966000D01*
X100584000Y-108966000D02*
X101600000Y-109982000D01*
X101600000Y-109982000D02*
X119532400Y-109982000D01*
X119532400Y-109982000D02*
X139700000Y-109982000D01*
D22*
X120904000Y-107442000D02*
X120904000Y-107696000D01*
X161544000Y-107442000D02*
X161544000Y-108712000D01*
X161544000Y-108712000D02*
X160274000Y-109982000D01*
X160274000Y-109982000D02*
X139700000Y-109982000D01*
X141224000Y-107442000D02*
X141224000Y-108458000D01*
X141224000Y-108458000D02*
X139700000Y-109982000D01*
D23*
X100584000Y-107442000D02*
X100584000Y-108966000D01*
X100584000Y-108966000D02*
X101600000Y-109982000D01*
D22*
X141287500Y-80010000D02*
X141287500Y-81216500D01*
X141287500Y-81216500D02*
X139954000Y-82550000D01*
X139954000Y-82550000D02*
X139700000Y-82550000D01*
X160274000Y-82550000D02*
X139700000Y-82550000D01*
X161544000Y-81280000D02*
X160274000Y-82550000D01*
X161544000Y-80010000D02*
X161544000Y-81280000D01*
X141287500Y-80010000D02*
X141287500Y-80454500D01*
D23*
X100584000Y-80010000D02*
X100584000Y-81280000D01*
X100584000Y-81280000D02*
X101854000Y-82550000D01*
D21*
X110002000Y-126746000D02*
X115318020Y-126746000D01*
X115318020Y-126746000D02*
X115826540Y-127254520D01*
X110871000Y-133858000D02*
X110871000Y-127615000D01*
X110871000Y-127615000D02*
X110002000Y-126746000D01*
D26*
X184992000Y-100584000D02*
X187532000Y-100584000D01*
X187532000Y-100584000D02*
X190550800Y-97565200D01*
X190550800Y-97565200D02*
X190529200Y-97565200D01*
X190529200Y-97565200D02*
X190500000Y-97536000D01*
X190500000Y-97536000D02*
X190550800Y-97536000D01*
X178308000Y-100584000D02*
X176784000Y-102108000D01*
X176784000Y-102108000D02*
X176784000Y-102362000D01*
D23*
X184992000Y-77724000D02*
X187532000Y-77724000D01*
D22*
X187532000Y-77724000D02*
X187960000Y-77724000D01*
X187960000Y-77724000D02*
X190550800Y-80314800D01*
X190550800Y-80314800D02*
X190550800Y-97536000D01*
X190550800Y-97536000D02*
X190550800Y-127965200D01*
X190550800Y-127965200D02*
X187325000Y-131191000D01*
D26*
X187532000Y-77724000D02*
X187706000Y-77724000D01*
D22*
X184992000Y-77724000D02*
X184658000Y-77724000D01*
X184658000Y-77724000D02*
X180594000Y-73660000D01*
X180594000Y-73660000D02*
X160274000Y-73660000D01*
D26*
X176784000Y-77470000D02*
X180594000Y-73660000D01*
X156527500Y-77406500D02*
X160274000Y-73660000D01*
X160274000Y-73660000D02*
X160020000Y-73914000D01*
X160020000Y-73914000D02*
X160020000Y-73660000D01*
D22*
X139954000Y-73660000D02*
X160020000Y-73660000D01*
D26*
X176784000Y-80010000D02*
X176784000Y-77470000D01*
X156527500Y-80010000D02*
X156527500Y-77406500D01*
X136144000Y-80010000D02*
X136144000Y-77470000D01*
X136144000Y-77470000D02*
X139954000Y-73660000D01*
X115824000Y-80010000D02*
X115824000Y-77470000D01*
X115824000Y-77470000D02*
X119634000Y-73660000D01*
D22*
X119634000Y-73660000D02*
X139954000Y-73660000D01*
D26*
X115824000Y-107442000D02*
X115824000Y-102616000D01*
X115824000Y-102616000D02*
X114109500Y-100901500D01*
X114109500Y-100901500D02*
X114046000Y-100838000D01*
X114046000Y-100838000D02*
X114300000Y-101092000D01*
X114300000Y-101092000D02*
X114300000Y-100838000D01*
X136144000Y-107442000D02*
X136144000Y-102616000D01*
X136144000Y-102616000D02*
X134366000Y-100838000D01*
X134366000Y-100838000D02*
X133858000Y-100838000D01*
D22*
X114300000Y-100838000D02*
X133858000Y-100838000D01*
X133858000Y-100838000D02*
X154940000Y-100838000D01*
D26*
X156464000Y-107442000D02*
X156464000Y-102616000D01*
X156464000Y-102616000D02*
X154686000Y-100838000D01*
X154686000Y-100838000D02*
X154432000Y-100838000D01*
X154432000Y-100838000D02*
X154940000Y-100838000D01*
X154940000Y-100838000D02*
X175260000Y-100838000D01*
X175260000Y-100838000D02*
X176784000Y-102362000D01*
X176784000Y-102362000D02*
X176784000Y-107442000D01*
D27*
X184992000Y-87884000D02*
X181610000Y-87884000D01*
X181610000Y-87884000D02*
X181102000Y-88392000D01*
X181102000Y-88392000D02*
X181102000Y-93268800D01*
X181102000Y-93268800D02*
X179273200Y-95097600D01*
X179273200Y-95097600D02*
X118211600Y-95097600D01*
X118211600Y-95097600D02*
X115824000Y-92710000D01*
X184992000Y-85344000D02*
X181610000Y-85344000D01*
X181610000Y-85344000D02*
X180594000Y-86360000D01*
X180594000Y-86360000D02*
X180594000Y-93167200D01*
X180594000Y-93167200D02*
X179120800Y-94640400D01*
X179120800Y-94640400D02*
X138074400Y-94640400D01*
X138074400Y-94640400D02*
X136144000Y-92710000D01*
X184992000Y-82804000D02*
X181610000Y-82804000D01*
X181610000Y-82804000D02*
X180086000Y-84328000D01*
X180086000Y-84328000D02*
X180086000Y-90297000D01*
X180086000Y-90297000D02*
X178054000Y-92329000D01*
X178054000Y-92329000D02*
X178054000Y-93370400D01*
X178054000Y-93370400D02*
X177241200Y-94183200D01*
X177241200Y-94183200D02*
X158000700Y-94183200D01*
X158000700Y-94183200D02*
X156527500Y-92710000D01*
X184992000Y-80264000D02*
X181610000Y-80264000D01*
X181610000Y-80264000D02*
X179578000Y-82296000D01*
X179578000Y-82296000D02*
X179578000Y-89916000D01*
X179578000Y-89916000D02*
X176784000Y-92710000D01*
X187532000Y-80264000D02*
X187579000Y-80264000D01*
X187579000Y-80264000D02*
X189865000Y-82550000D01*
X189865000Y-82550000D02*
X189865000Y-95250000D01*
X189865000Y-95250000D02*
X188341000Y-96774000D01*
X188341000Y-96774000D02*
X182753000Y-96774000D01*
X182753000Y-96774000D02*
X182372000Y-97155000D01*
X182372000Y-97155000D02*
X182372000Y-120269000D01*
X182372000Y-120269000D02*
X180467000Y-122174000D01*
X180467000Y-122174000D02*
X117856000Y-122174000D01*
X117856000Y-122174000D02*
X115824000Y-120142000D01*
X115824000Y-120142000D02*
X115824000Y-120243600D01*
X187532000Y-82804000D02*
X187579000Y-82804000D01*
X187579000Y-82804000D02*
X189357000Y-84582000D01*
X189357000Y-84582000D02*
X189357000Y-93345000D01*
X189357000Y-93345000D02*
X188468000Y-94234000D01*
X188468000Y-94234000D02*
X182372000Y-94234000D01*
X182372000Y-94234000D02*
X181864000Y-94742000D01*
X181864000Y-94742000D02*
X181864000Y-120142000D01*
X181864000Y-120142000D02*
X180213000Y-121793000D01*
X180213000Y-121793000D02*
X137795000Y-121793000D01*
X137795000Y-121793000D02*
X136144000Y-120142000D01*
X184026800Y-91643200D02*
X182295800Y-91643200D01*
X182295800Y-91643200D02*
X182118000Y-91821000D01*
X182118000Y-91821000D02*
X182118000Y-93472000D01*
X182118000Y-93472000D02*
X181356000Y-94234000D01*
X181356000Y-94234000D02*
X181356000Y-120015000D01*
X181356000Y-120015000D02*
X179959000Y-121412000D01*
X179959000Y-121412000D02*
X157734000Y-121412000D01*
X157734000Y-121412000D02*
X156464000Y-120142000D01*
X188903600Y-86715600D02*
X187532000Y-85344000D01*
X188903600Y-91135200D02*
X188903600Y-86715600D01*
X188395600Y-91643200D02*
X188903600Y-91135200D01*
X184026800Y-91643200D02*
X188395600Y-91643200D01*
X183134000Y-89154000D02*
X181737000Y-89154000D01*
X181737000Y-89154000D02*
X181610000Y-89281000D01*
X181610000Y-89281000D02*
X181610000Y-93345000D01*
X181610000Y-93345000D02*
X180797200Y-94157800D01*
X180797200Y-94157800D02*
X180797200Y-99212400D01*
X187532000Y-87884000D02*
X187532000Y-88544400D01*
X187532000Y-88544400D02*
X186922400Y-89154000D01*
X186922400Y-89154000D02*
X183134000Y-89154000D01*
X183134000Y-89154000D02*
X183061600Y-89154000D01*
X180797200Y-99212400D02*
X180797200Y-116128800D01*
X180797200Y-116128800D02*
X176784000Y-120142000D01*
X176784000Y-120142000D02*
X176834800Y-120142000D01*
D28*
X161544000Y-120142000D02*
X161544000Y-111252000D01*
X146050000Y-111760000D02*
X161036000Y-111760000D01*
X161036000Y-111760000D02*
X161544000Y-111252000D01*
X161544000Y-111252000D02*
X162814000Y-109982000D01*
X162814000Y-109982000D02*
X162814000Y-103124000D01*
X184992000Y-103124000D02*
X184992000Y-102950000D01*
X184992000Y-102950000D02*
X183134000Y-101092000D01*
X183134000Y-101092000D02*
X183134000Y-98094800D01*
X120904000Y-92710000D02*
X120904000Y-85725000D01*
X120904000Y-85725000D02*
X119507000Y-84328000D01*
X161544000Y-92710000D02*
X161544000Y-85725000D01*
X161544000Y-85725000D02*
X160147000Y-84328000D01*
X141287500Y-92710000D02*
X141287500Y-85788500D01*
X141287500Y-85788500D02*
X139827000Y-84328000D01*
X141224000Y-120142000D02*
X141224000Y-116586000D01*
X141224000Y-116586000D02*
X146050000Y-111760000D01*
X120904000Y-120142000D02*
X120904000Y-116586000D01*
X120904000Y-116586000D02*
X125730000Y-111760000D01*
X100584000Y-120142000D02*
X100584000Y-116586000D01*
X100584000Y-116586000D02*
X105410000Y-111760000D01*
X105410000Y-111760000D02*
X125730000Y-111760000D01*
X125730000Y-111760000D02*
X146050000Y-111760000D01*
X100584000Y-92710000D02*
X100584000Y-89154000D01*
X100584000Y-89154000D02*
X105410000Y-84328000D01*
X105410000Y-84328000D02*
X119507000Y-84328000D01*
X119507000Y-84328000D02*
X125730000Y-84328000D01*
X125730000Y-84328000D02*
X139827000Y-84328000D01*
X139827000Y-84328000D02*
X146050000Y-84328000D01*
X146050000Y-84328000D02*
X160147000Y-84328000D01*
D27*
X187532000Y-103124000D02*
X187198000Y-103124000D01*
X187198000Y-103124000D02*
X185928000Y-104394000D01*
X185928000Y-104394000D02*
X183896000Y-104394000D01*
X183896000Y-104394000D02*
X182880000Y-105410000D01*
X182880000Y-105410000D02*
X182880000Y-120396000D01*
X182880000Y-120396000D02*
X180594000Y-122682000D01*
X180594000Y-122682000D02*
X164211000Y-122682000D01*
X164211000Y-122682000D02*
X158242000Y-128651000D01*
X180594000Y-123190000D02*
X180746400Y-123190000D01*
X180746400Y-123190000D02*
X183286400Y-120650000D01*
X183286400Y-120650000D02*
X183286400Y-120497600D01*
X183286400Y-120497600D02*
X183286400Y-107369600D01*
X183286400Y-107369600D02*
X184992000Y-105664000D01*
X184992000Y-105664000D02*
X184404000Y-105664000D01*
X180594000Y-123190000D02*
X167894000Y-123190000D01*
X167894000Y-123190000D02*
X162433000Y-128651000D01*
X184992000Y-108204000D02*
X184992000Y-108327200D01*
X184992000Y-108327200D02*
X183692800Y-109626400D01*
X183692800Y-109626400D02*
X183692800Y-120904000D01*
X183692800Y-120904000D02*
X181000400Y-123596400D01*
X181000400Y-123596400D02*
X171043600Y-123596400D01*
X171043600Y-123596400D02*
X165989000Y-128651000D01*
X187532000Y-113284000D02*
X187299600Y-113284000D01*
X187299600Y-113284000D02*
X186283600Y-114300000D01*
X186283600Y-114300000D02*
X186283600Y-121920000D01*
X186283600Y-121920000D02*
X184251600Y-123952000D01*
X184251600Y-123952000D02*
X181356000Y-123952000D01*
X181356000Y-123952000D02*
X176657000Y-128651000D01*
X187532000Y-108204000D02*
X187532000Y-108233200D01*
X187532000Y-108233200D02*
X188772800Y-109474000D01*
X188772800Y-109474000D02*
X188772800Y-123647200D01*
X188772800Y-123647200D02*
X183769000Y-128651000D01*
X187532000Y-105664000D02*
X187532000Y-105693200D01*
X187532000Y-105693200D02*
X189179200Y-107340400D01*
X189179200Y-107340400D02*
X189179200Y-126796800D01*
X189179200Y-126796800D02*
X187325000Y-128651000D01*
D23*
X105664000Y-80010000D02*
X105664000Y-75946000D01*
X108204000Y-80010000D02*
X108204000Y-75946000D01*
X110744000Y-75946000D02*
X110744000Y-80010000D01*
X113284000Y-80010000D02*
X113284000Y-75946000D01*
X125984000Y-80010000D02*
X125984000Y-75946000D01*
X128524000Y-75946000D02*
X128524000Y-80010000D01*
X131064000Y-80010000D02*
X131064000Y-75946000D01*
X133604000Y-75946000D02*
X133604000Y-80010000D01*
X146367500Y-80010000D02*
X146367500Y-75946000D01*
X148907500Y-80010000D02*
X148907500Y-75946000D01*
X151447500Y-80010000D02*
X151447500Y-75946000D01*
X153987500Y-75946000D02*
X153987500Y-80010000D01*
X166624000Y-80010000D02*
X166624000Y-75946000D01*
X169164000Y-80010000D02*
X169164000Y-75946000D01*
X171704000Y-80010000D02*
X171704000Y-75946000D01*
X174244000Y-80010000D02*
X174244000Y-75946000D01*
X105664000Y-103378000D02*
X105664000Y-107442000D01*
X108204000Y-107442000D02*
X108204000Y-103378000D01*
X110744000Y-107442000D02*
X110744000Y-103378000D01*
X113284000Y-107442000D02*
X113284000Y-103378000D01*
X125984000Y-103378000D02*
X125984000Y-107442000D01*
X128524000Y-107442000D02*
X128524000Y-103378000D01*
X131064000Y-103378000D02*
X131064000Y-107442000D01*
X133604000Y-107442000D02*
X133604000Y-103378000D01*
X146304000Y-103378000D02*
X146304000Y-107442000D01*
X148844000Y-107442000D02*
X148844000Y-103378000D01*
X151384000Y-103378000D02*
X151384000Y-107442000D01*
X153924000Y-107442000D02*
X153924000Y-103378000D01*
X166624000Y-103378000D02*
X166624000Y-107442000D01*
X169164000Y-107442000D02*
X169164000Y-103378000D01*
X171704000Y-107442000D02*
X171704000Y-103378000D01*
X174244000Y-107442000D02*
X174244000Y-103378000D01*
D28*
X110744000Y-92710000D02*
X113284000Y-92710000D01*
X131064000Y-92710000D02*
X133604000Y-92710000D01*
X151447500Y-92710000D02*
X153987500Y-92710000D01*
X171704000Y-92710000D02*
X174244000Y-92710000D01*
X110744000Y-120142000D02*
X113284000Y-120142000D01*
X131064000Y-120142000D02*
X133604000Y-120142000D01*
X151384000Y-120142000D02*
X153924000Y-120142000D01*
X171704000Y-120142000D02*
X174244000Y-120142000D01*
X117094000Y-90170000D02*
X116078000Y-91186000D01*
X116078000Y-91186000D02*
X109728000Y-91186000D01*
X109728000Y-91186000D02*
X108204000Y-92710000D01*
X117094000Y-88900000D02*
X117094000Y-90170000D01*
X117094000Y-88900000D02*
X117094000Y-90170000D01*
X109728000Y-91186000D02*
X108204000Y-92710000D01*
X116078000Y-91186000D02*
X109728000Y-91186000D01*
X117094000Y-90170000D02*
X116078000Y-91186000D01*
X107950000Y-90424000D02*
X105664000Y-92710000D01*
X113284000Y-90424000D02*
X107950000Y-90424000D01*
X114554000Y-89154000D02*
X113284000Y-90424000D01*
X114554000Y-88900000D02*
X114554000Y-89154000D01*
X114554000Y-88900000D02*
X114554000Y-89154000D01*
X114554000Y-89154000D02*
X113284000Y-90424000D01*
X113284000Y-90424000D02*
X107950000Y-90424000D01*
X107950000Y-90424000D02*
X105664000Y-92710000D01*
X106934000Y-88900000D02*
X103124000Y-92710000D01*
X112014000Y-88900000D02*
X106934000Y-88900000D01*
X112014000Y-88900000D02*
X106934000Y-88900000D01*
X106934000Y-88900000D02*
X103124000Y-92710000D01*
X137414000Y-88900000D02*
X137414000Y-90170000D01*
X130048000Y-91186000D02*
X128524000Y-92710000D01*
X136398000Y-91186000D02*
X130048000Y-91186000D01*
X137414000Y-90170000D02*
X136398000Y-91186000D01*
X134874000Y-88900000D02*
X134874000Y-89408000D01*
X134874000Y-89408000D02*
X133858000Y-90424000D01*
X133858000Y-90424000D02*
X128270000Y-90424000D01*
X128270000Y-90424000D02*
X125984000Y-92710000D01*
X132334000Y-88900000D02*
X127254000Y-88900000D01*
X127254000Y-88900000D02*
X123444000Y-92710000D01*
X157797500Y-88900000D02*
X157797500Y-90106500D01*
X157797500Y-90106500D02*
X156718000Y-91186000D01*
X156718000Y-91186000D02*
X150431500Y-91186000D01*
X150431500Y-91186000D02*
X148907500Y-92710000D01*
X155257500Y-88900000D02*
X155257500Y-89344500D01*
X155257500Y-89344500D02*
X154178000Y-90424000D01*
X154178000Y-90424000D02*
X148653500Y-90424000D01*
X148653500Y-90424000D02*
X146367500Y-92710000D01*
X152717500Y-88900000D02*
X147637500Y-88900000D01*
X147637500Y-88900000D02*
X143827500Y-92710000D01*
X178054000Y-88900000D02*
X178054000Y-90170000D01*
X178054000Y-90170000D02*
X177038000Y-91186000D01*
X177038000Y-91186000D02*
X170688000Y-91186000D01*
X170688000Y-91186000D02*
X169164000Y-92710000D01*
X175514000Y-88900000D02*
X175514000Y-89408000D01*
X175514000Y-89408000D02*
X174498000Y-90424000D01*
X174498000Y-90424000D02*
X168910000Y-90424000D01*
X168910000Y-90424000D02*
X166624000Y-92710000D01*
X172974000Y-88900000D02*
X167894000Y-88900000D01*
X167894000Y-88900000D02*
X164084000Y-92710000D01*
X117094000Y-116332000D02*
X117094000Y-117602000D01*
X117094000Y-117602000D02*
X115824000Y-118872000D01*
X115824000Y-118872000D02*
X109474000Y-118872000D01*
X109474000Y-118872000D02*
X108204000Y-120142000D01*
X114554000Y-116332000D02*
X114554000Y-116840000D01*
X114554000Y-116840000D02*
X113538000Y-117856000D01*
X113538000Y-117856000D02*
X107950000Y-117856000D01*
X107950000Y-117856000D02*
X105664000Y-120142000D01*
X112014000Y-116332000D02*
X106934000Y-116332000D01*
X106934000Y-116332000D02*
X103124000Y-120142000D01*
X137414000Y-116332000D02*
X137414000Y-117602000D01*
X137414000Y-117602000D02*
X136144000Y-118872000D01*
X136144000Y-118872000D02*
X129794000Y-118872000D01*
X129794000Y-118872000D02*
X128524000Y-120142000D01*
X134874000Y-116332000D02*
X134874000Y-116840000D01*
X134874000Y-116840000D02*
X133858000Y-117856000D01*
X133858000Y-117856000D02*
X128270000Y-117856000D01*
X128270000Y-117856000D02*
X125984000Y-120142000D01*
X132334000Y-116332000D02*
X127254000Y-116332000D01*
X127254000Y-116332000D02*
X123444000Y-120142000D01*
X157734000Y-116332000D02*
X157734000Y-117602000D01*
X157734000Y-117602000D02*
X156464000Y-118872000D01*
X156464000Y-118872000D02*
X150114000Y-118872000D01*
X150114000Y-118872000D02*
X148844000Y-120142000D01*
X155194000Y-116332000D02*
X155194000Y-116840000D01*
X155194000Y-116840000D02*
X154178000Y-117856000D01*
X154178000Y-117856000D02*
X148590000Y-117856000D01*
X148590000Y-117856000D02*
X146304000Y-120142000D01*
X152654000Y-116332000D02*
X147574000Y-116332000D01*
X147574000Y-116332000D02*
X143764000Y-120142000D01*
X178054000Y-116332000D02*
X178054000Y-117602000D01*
X178054000Y-117602000D02*
X176784000Y-118872000D01*
X176784000Y-118872000D02*
X170434000Y-118872000D01*
X170434000Y-118872000D02*
X169164000Y-120142000D01*
X175514000Y-116332000D02*
X175514000Y-116840000D01*
X175514000Y-116840000D02*
X174498000Y-117856000D01*
X174498000Y-117856000D02*
X168910000Y-117856000D01*
X168910000Y-117856000D02*
X166624000Y-120142000D01*
X172974000Y-116332000D02*
X167894000Y-116332000D01*
X167894000Y-116332000D02*
X164084000Y-120142000D01*
D21*
X99695000Y-133858000D02*
X99695000Y-126853000D01*
X99695000Y-126853000D02*
X99802000Y-126746000D01*
M02*
