G04 #@! TF.FileFunction,Paste,Top*
%FSLAX46Y46*%
G04 Gerber Fmt 4.6, Leading zero omitted, Abs format (unit mm)*
G04 Created by KiCad (PCBNEW 4.0.4+e1-6308~48~ubuntu15.10.1-stable) date Thu Dec  8 14:35:49 2016*
%MOMM*%
%LPD*%
G01*
G04 APERTURE LIST*
%ADD10C,0.100000*%
%ADD11O,1.981200X3.962400*%
%ADD12R,1.700000X2.000000*%
%ADD13R,2.000000X1.700000*%
%ADD14R,1.800860X1.597660*%
%ADD15R,3.500000X1.600000*%
G04 APERTURE END LIST*
D10*
D11*
X99695000Y-133858000D03*
X94615000Y-133858000D03*
D12*
X142621000Y-125254000D03*
X142621000Y-129254000D03*
X132207000Y-125254000D03*
X132207000Y-129254000D03*
X137414000Y-125254000D03*
X137414000Y-129254000D03*
D13*
X162084000Y-117602000D03*
X166084000Y-117602000D03*
X141764000Y-117602000D03*
X145764000Y-117602000D03*
X121444000Y-117602000D03*
X125444000Y-117602000D03*
X101124000Y-117602000D03*
X105124000Y-117602000D03*
X162084000Y-90170000D03*
X166084000Y-90170000D03*
X141827500Y-90170000D03*
X145827500Y-90170000D03*
X121444000Y-90170000D03*
X125444000Y-90170000D03*
X101124000Y-90170000D03*
X105124000Y-90170000D03*
D14*
X140081000Y-125834140D03*
X140081000Y-128673860D03*
X129667000Y-125834140D03*
X129667000Y-128673860D03*
X134874000Y-125834140D03*
X134874000Y-128673860D03*
D15*
X162400000Y-112522000D03*
X167800000Y-112522000D03*
X142080000Y-112522000D03*
X147480000Y-112522000D03*
X121760000Y-112522000D03*
X127160000Y-112522000D03*
X101440000Y-112522000D03*
X106840000Y-112522000D03*
X162400000Y-85090000D03*
X167800000Y-85090000D03*
X142143500Y-85090000D03*
X147543500Y-85090000D03*
X121760000Y-85090000D03*
X127160000Y-85090000D03*
X101440000Y-85090000D03*
X106840000Y-85090000D03*
D13*
X115030000Y-82804000D03*
X111030000Y-82804000D03*
X135350000Y-82804000D03*
X131350000Y-82804000D03*
X155733500Y-82804000D03*
X151733500Y-82804000D03*
X175990000Y-82804000D03*
X171990000Y-82804000D03*
X115030000Y-110236000D03*
X111030000Y-110236000D03*
X135350000Y-110236000D03*
X131350000Y-110236000D03*
X155670000Y-110236000D03*
X151670000Y-110236000D03*
X175990000Y-110236000D03*
X171990000Y-110236000D03*
D11*
X110871000Y-133858000D03*
X105791000Y-133858000D03*
M02*
